<svg xmlns="http://www.w3.org/2000/svg" width="968" height="250" viewBox="0 0 968 250" fill="none" role="img">
  <rect width="968" height="250" fill="#0a192f" rx="6"/>
  <style>
    .title { font: 700 15px "Segoe UI", Helvetica, sans-serif; fill: #64ffda; letter-spacing: 0.5px; }
    .lang-name { font: 600 13px "Segoe UI", Helvetica, sans-serif; fill: #ccd6f6; }
    .lang-pct { font: 400 13px "Segoe UI", Helvetica, sans-serif; fill: #8892b0; }
  </style>
  <text x="30" y="30" class="title">Most Used Languages</text>
  <path d="M 130 67 A 78 78 0 0 1 204.40754627384564 168.3990824073407 L 177.69714504733693 159.9994117995774 A 50 50 0 0 0 130 95 Z" fill="#3178c6"/><path d="M 204.40754627384564 168.3990824073407 A 78 78 0 0 1 103.89534279706285 218.502019511828 L 113.26624538273259 192.1166791742487 A 50 50 0 0 0 177.69714504733693 159.9994117995774 Z" fill="#dea584"/><path d="M 103.89534279706285 218.502019511828 A 78 78 0 0 1 63.487434606289796 185.74406269320014 L 87.36374013223704 171.11798890589753 A 50 50 0 0 0 113.26624538273259 192.1166791742487 Z" fill="#663399"/><path d="M 63.487434606289796 185.74406269320014 A 78 78 0 0 1 52.37780753397736 137.33219478809363 L 80.24218431665216 140.08474024877796 A 50 50 0 0 0 87.36374013223704 171.11798890589753 Z" fill="#f1e05a"/><path d="M 52.37780753397736 137.33219478809363 A 78 78 0 0 1 63.34461498175001 104.49000557801995 L 87.2721890908654 119.0320548577051 A 50 50 0 0 0 80.24218431665216 140.08474024877796 Z" fill="#178600"/><path d="M 63.34461498175001 104.49000557801995 A 78 78 0 0 1 87.32558797419699 79.70915410065513 L 102.6446076757673 103.14689365426611 A 50 50 0 0 0 87.2721890908654 119.0320548577051 Z" fill="#3572A5"/><path d="M 87.32558797419699 79.70915410065513 A 78 78 0 0 1 112.57146241625293 68.97207041032937 L 118.82786052323905 96.26414769892908 A 50 50 0 0 0 102.6446076757673 103.14689365426611 Z" fill="#ff3e00"/><path d="M 112.57146241625293 68.97207041032937 A 78 78 0 0 1 123.15708772598599 67.30074291468323 L 125.61351777306794 95.19278391966873 A 50 50 0 0 0 118.82786052323905 96.26414769892908 Z" fill="#e34c26"/><path d="M 123.15708772598599 67.30074291468323 A 78 78 0 0 1 129.24023669870724 67.00370034593942 L 129.51297224276104 95.00237201662785 A 50 50 0 0 0 125.61351777306794 95.19278391966873 Z" fill="#A97BFF"/><path d="M 129.24023669870724 67.00370034593942 A 78 78 0 0 1 129.99999999999991 67 L 129.99999999999994 95 A 50 50 0 0 0 129.51297224276104 95.00237201662785 Z" fill="#89e051"/>
  
    <rect x="290" y="69" width="12" height="12" rx="3" fill="#3178c6"/>
    <text x="312" y="80" class="lang-name">TypeScript</text>
    <text x="599" y="80" class="lang-pct" text-anchor="end">29.85%</text>
    <rect x="290" y="99" width="12" height="12" rx="3" fill="#dea584"/>
    <text x="312" y="110" class="lang-name">Rust</text>
    <text x="599" y="110" class="lang-pct" text-anchor="end">25.58%</text>
    <rect x="290" y="129" width="12" height="12" rx="3" fill="#663399"/>
    <text x="312" y="140" class="lang-name">CSS</text>
    <text x="599" y="140" class="lang-pct" text-anchor="end">10.82%</text>
    <rect x="290" y="159" width="12" height="12" rx="3" fill="#f1e05a"/>
    <text x="312" y="170" class="lang-name">JavaScript</text>
    <text x="599" y="170" class="lang-pct" text-anchor="end">10.31%</text>
    <rect x="290" y="189" width="12" height="12" rx="3" fill="#178600"/>
    <text x="312" y="200" class="lang-name">C#</text>
    <text x="599" y="200" class="lang-pct" text-anchor="end">7.12%</text>
    <rect x="629" y="69" width="12" height="12" rx="3" fill="#3572A5"/>
    <text x="651" y="80" class="lang-name">Python</text>
    <text x="938" y="80" class="lang-pct" text-anchor="end">7.09%</text>
    <rect x="629" y="99" width="12" height="12" rx="3" fill="#ff3e00"/>
    <text x="651" y="110" class="lang-name">Svelte</text>
    <text x="938" y="110" class="lang-pct" text-anchor="end">5.63%</text>
    <rect x="629" y="129" width="12" height="12" rx="3" fill="#e34c26"/>
    <text x="651" y="140" class="lang-name">HTML</text>
    <text x="938" y="140" class="lang-pct" text-anchor="end">2.19%</text>
    <rect x="629" y="159" width="12" height="12" rx="3" fill="#A97BFF"/>
    <text x="651" y="170" class="lang-name">Kotlin</text>
    <text x="938" y="170" class="lang-pct" text-anchor="end">1.24%</text>
    <rect x="629" y="189" width="12" height="12" rx="3" fill="#89e051"/>
    <text x="651" y="200" class="lang-name">Shell</text>
    <text x="938" y="200" class="lang-pct" text-anchor="end">0.16%</text>
</svg>