<svg xmlns="http://www.w3.org/2000/svg" width="968" height="250" viewBox="0 0 968 250" fill="none" role="img">
  <rect width="968" height="250" fill="#0a192f" rx="6"/>
  <style>
    .title { font: 700 15px "Segoe UI", Helvetica, sans-serif; fill: #64ffda; letter-spacing: 0.5px; }
    .lang-name { font: 600 13px "Segoe UI", Helvetica, sans-serif; fill: #ccd6f6; }
    .lang-pct { font: 400 13px "Segoe UI", Helvetica, sans-serif; fill: #8892b0; }
  </style>
  <text x="30" y="30" class="title">Most Used Languages</text>
  <path d="M 130 67 A 78 78 0 1 1 86.5434105059436 80.22712890765867 L 102.14321186278437 103.47892878696068 A 50 50 0 1 0 130 95 Z" fill="#3178c6"/><path d="M 86.5434105059436 80.22712890765867 A 78 78 0 0 1 107.60624149309257 70.28373952121058 L 115.64502659813625 97.10496123154525 A 50 50 0 0 0 102.14321186278437 103.47892878696068 Z" fill="#dea584"/><path d="M 107.60624149309257 70.28373952121058 A 78 78 0 0 1 113.77490564427313 68.70618430601495 L 119.59929848991867 96.09370788847112 A 50 50 0 0 0 115.64502659813625 97.10496123154525 Z" fill="#178600"/><path d="M 113.77490564427313 68.70618430601495 A 78 78 0 0 1 118.78029634377363 67.8111520369266 L 122.80788227164976 95.51996925444013 A 50 50 0 0 0 119.59929848991867 96.09370788847112 Z" fill="#663399"/><path d="M 118.78029634377363 67.8111520369266 A 78 78 0 0 1 122.89190615591914 67.32455341677307 L 125.44352958712766 95.20804706203401 A 50 50 0 0 0 122.80788227164976 95.51996925444013 Z" fill="#f1e05a"/><path d="M 122.89190615591914 67.32455341677307 A 78 78 0 0 1 125.3665684621584 67.13774141354403 L 127.02985157830666 95.08829577791285 A 50 50 0 0 0 125.44352958712766 95.20804706203401 Z" fill="#3572A5"/><path d="M 125.3665684621584 67.13774141354403 A 78 78 0 0 1 126.95309413281215 67.05953320234413 L 128.04685521334113 95.03816230919496 A 50 50 0 0 0 127.02985157830666 95.08829577791285 Z" fill="#e34c26"/><path d="M 126.95309413281215 67.05953320234413 A 78 78 0 0 1 128.48703347710745 67.01467489135788 L 129.03014966481246 95.00940698163967 A 50 50 0 0 0 128.04685521334113 95.03816230919496 Z" fill="#ff3e00"/><path d="M 128.48703347710745 67.01467489135788 A 78 78 0 0 1 129.3303122211645 67.00287493581011 L 129.57071296228492 95.00184290757059 A 50 50 0 0 0 129.03014966481246 95.00940698163967 Z" fill="#89e051"/><path d="M 129.3303122211645 67.00287493581011 A 78 78 0 0 1 129.6693044470746 67.00070102589848 L 129.78801567120166 95.00044937557595 A 50 50 0 0 0 129.57071296228492 95.00184290757059 Z" fill="#A97BFF"/>
  
    <rect x="290" y="69" width="12" height="12" rx="3" fill="#3178c6"/>
    <text x="312" y="80" class="lang-name">TypeScript</text>
    <text x="599" y="80" class="lang-pct" text-anchor="end">90.60%</text>
    <rect x="290" y="99" width="12" height="12" rx="3" fill="#dea584"/>
    <text x="312" y="110" class="lang-name">Rust</text>
    <text x="599" y="110" class="lang-pct" text-anchor="end">4.77%</text>
    <rect x="290" y="129" width="12" height="12" rx="3" fill="#178600"/>
    <text x="312" y="140" class="lang-name">C#</text>
    <text x="599" y="140" class="lang-pct" text-anchor="end">1.30%</text>
    <rect x="290" y="159" width="12" height="12" rx="3" fill="#663399"/>
    <text x="312" y="170" class="lang-name">CSS</text>
    <text x="599" y="170" class="lang-pct" text-anchor="end">1.04%</text>
    <rect x="290" y="189" width="12" height="12" rx="3" fill="#f1e05a"/>
    <text x="312" y="200" class="lang-name">JavaScript</text>
    <text x="599" y="200" class="lang-pct" text-anchor="end">0.84%</text>
    <rect x="629" y="69" width="12" height="12" rx="3" fill="#3572A5"/>
    <text x="651" y="80" class="lang-name">Python</text>
    <text x="938" y="80" class="lang-pct" text-anchor="end">0.51%</text>
    <rect x="629" y="99" width="12" height="12" rx="3" fill="#e34c26"/>
    <text x="651" y="110" class="lang-name">HTML</text>
    <text x="938" y="110" class="lang-pct" text-anchor="end">0.32%</text>
    <rect x="629" y="129" width="12" height="12" rx="3" fill="#ff3e00"/>
    <text x="651" y="140" class="lang-name">Svelte</text>
    <text x="938" y="140" class="lang-pct" text-anchor="end">0.31%</text>
    <rect x="629" y="159" width="12" height="12" rx="3" fill="#89e051"/>
    <text x="651" y="170" class="lang-name">Shell</text>
    <text x="938" y="170" class="lang-pct" text-anchor="end">0.17%</text>
    <rect x="629" y="189" width="12" height="12" rx="3" fill="#A97BFF"/>
    <text x="651" y="200" class="lang-name">Kotlin</text>
    <text x="938" y="200" class="lang-pct" text-anchor="end">0.07%</text>
</svg>