<svg xmlns="http://www.w3.org/2000/svg" width="968" height="250" viewBox="0 0 968 250" fill="none" role="img">
  <rect width="968" height="250" fill="#0a192f" rx="6"/>
  <style>
    .title { font: 700 15px "Segoe UI", Helvetica, sans-serif; fill: #64ffda; letter-spacing: 0.5px; }
    .lang-name { font: 600 13px "Segoe UI", Helvetica, sans-serif; fill: #ccd6f6; }
    .lang-pct { font: 400 13px "Segoe UI", Helvetica, sans-serif; fill: #8892b0; }
  </style>
  <text x="30" y="30" class="title">Most Used Languages</text>
  <path d="M 130 67 A 78 78 0 1 1 72.15245754047197 197.322670338899 L 92.91824201312306 178.54017329416604 A 50 50 0 1 0 130 95 Z" fill="#3178c6"/><path d="M 72.15245754047197 197.322670338899 A 78 78 0 0 1 55.74470432409085 121.12216374787475 L 82.40045148980182 129.69369471017612 A 50 50 0 0 0 92.91824201312306 178.54017329416604 Z" fill="#dea584"/><path d="M 55.74470432409085 121.12216374787475 A 78 78 0 0 1 89.21610093081492 78.51185386315449 L 103.85647495565058 102.37939350202211 A 50 50 0 0 0 82.40045148980182 129.69369471017612 Z" fill="#178600"/><path d="M 89.21610093081492 78.51185386315449 A 78 78 0 0 1 105.09509643420421 71.08284516853742 L 114.03531822705398 97.61720844137014 A 50 50 0 0 0 103.85647495565058 102.37939350202211 Z" fill="#663399"/><path d="M 105.09509643420421 71.08284516853742 A 78 78 0 0 1 117.6003152515999 67.99189771108306 L 122.05148413564096 95.63583186607889 A 50 50 0 0 0 114.03531822705398 97.61720844137014 Z" fill="#f1e05a"/><path d="M 117.6003152515999 67.99189771108306 A 78 78 0 0 1 123.54548137842636 67.26751522456162 L 125.86248806309382 95.17148411830874 A 50 50 0 0 0 122.05148413564096 95.63583186607889 Z" fill="#e34c26"/><path d="M 123.54548137842636 67.26751522456162 A 78 78 0 0 1 126.51544883811547 67.07787282677526 L 127.76631335776634 95.0499184787021 A 50 50 0 0 0 125.86248806309382 95.17148411830874 Z" fill="#89e051"/><path d="M 126.51544883811547 67.07787282677526 A 78 78 0 0 1 128.65589306959177 67.01158177934606 L 129.13839299332804 95.00742421752952 A 50 50 0 0 0 127.76631335776634 95.0499184787021 Z" fill="#336790"/><path d="M 128.65589306959177 67.01158177934606 A 78 78 0 0 1 129.87826804492127 67.00009499152507 L 129.92196669546234 95.00006089200325 A 50 50 0 0 0 129.13839299332804 95.00742421752952 Z" fill="#A97BFF"/><path d="M 129.87826804492127 67.00009499152507 A 78 78 0 0 1 129.99999999999991 67 L 129.99999999999994 95 A 50 50 0 0 0 129.92196669546234 95.00006089200325 Z" fill="#012456"/>
  
    <rect x="290" y="69" width="12" height="12" rx="3" fill="#3178c6"/>
    <text x="312" y="80" class="lang-name">TypeScript</text>
    <text x="599" y="80" class="lang-pct" text-anchor="end">63.30%</text>
    <rect x="290" y="99" width="12" height="12" rx="3" fill="#dea584"/>
    <text x="312" y="110" class="lang-name">Rust</text>
    <text x="599" y="110" class="lang-pct" text-anchor="end">16.65%</text>
    <rect x="290" y="129" width="12" height="12" rx="3" fill="#178600"/>
    <text x="312" y="140" class="lang-name">C#</text>
    <text x="599" y="140" class="lang-pct" text-anchor="end">11.29%</text>
    <rect x="290" y="159" width="12" height="12" rx="3" fill="#663399"/>
    <text x="312" y="170" class="lang-name">CSS</text>
    <text x="599" y="170" class="lang-pct" text-anchor="end">3.58%</text>
    <rect x="290" y="189" width="12" height="12" rx="3" fill="#f1e05a"/>
    <text x="312" y="200" class="lang-name">JavaScript</text>
    <text x="599" y="200" class="lang-pct" text-anchor="end">2.63%</text>
    <rect x="629" y="69" width="12" height="12" rx="3" fill="#e34c26"/>
    <text x="651" y="80" class="lang-name">HTML</text>
    <text x="938" y="80" class="lang-pct" text-anchor="end">1.22%</text>
    <rect x="629" y="99" width="12" height="12" rx="3" fill="#89e051"/>
    <text x="651" y="110" class="lang-name">Shell</text>
    <text x="938" y="110" class="lang-pct" text-anchor="end">0.61%</text>
    <rect x="629" y="129" width="12" height="12" rx="3" fill="#336790"/>
    <text x="651" y="140" class="lang-name">PLpgSQL</text>
    <text x="938" y="140" class="lang-pct" text-anchor="end">0.44%</text>
    <rect x="629" y="159" width="12" height="12" rx="3" fill="#A97BFF"/>
    <text x="651" y="170" class="lang-name">Kotlin</text>
    <text x="938" y="170" class="lang-pct" text-anchor="end">0.25%</text>
    <rect x="629" y="189" width="12" height="12" rx="3" fill="#012456"/>
    <text x="651" y="200" class="lang-name">PowerShell</text>
    <text x="938" y="200" class="lang-pct" text-anchor="end">0.02%</text>
</svg>