<svg xmlns="http://www.w3.org/2000/svg" width="968" height="250" viewBox="0 0 968 250" fill="none" role="img">
  <rect width="968" height="250" fill="#0a192f" rx="6"/>
  <style>
    .title { font: 700 15px "Segoe UI", Helvetica, sans-serif; fill: #64ffda; letter-spacing: 0.5px; }
    .lang-name { font: 600 13px "Segoe UI", Helvetica, sans-serif; fill: #ccd6f6; }
    .lang-pct { font: 400 13px "Segoe UI", Helvetica, sans-serif; fill: #8892b0; }
  </style>
  <text x="30" y="30" class="title">Most Used Languages</text>
  <path d="M 130 67 A 78 78 0 0 1 198.05849992297715 183.10565034524564 L 173.62724354036996 169.42669893926004 A 50 50 0 0 0 130 95 Z" fill="#3178c6"/><path d="M 198.05849992297715 183.10565034524564 A 78 78 0 0 1 105.1510789143658 218.9359934056473 L 114.07120443228577 192.39486756772266 A 50 50 0 0 0 173.62724354036996 169.42669893926004 Z" fill="#dea584"/><path d="M 105.1510789143658 218.9359934056473 A 78 78 0 0 1 61.48399781231075 182.27676815680996 L 86.07948577712227 168.89536420308332 A 50 50 0 0 0 114.07120443228577 192.39486756772266 Z" fill="#663399"/><path d="M 61.48399781231075 182.27676815680996 A 78 78 0 0 1 53.74121158020694 128.61106505152833 L 81.11616126936343 134.49427246892841 A 50 50 0 0 0 86.07948577712227 168.89536420308332 Z" fill="#f1e05a"/><path d="M 53.74121158020694 128.61106505152833 A 78 78 0 0 1 72.8827464236445 91.88108299396245 L 93.38637591259263 110.94941217561694 A 50 50 0 0 0 81.11616126936343 134.49427246892841 Z" fill="#3572A5"/><path d="M 72.8827464236445 91.88108299396245 A 78 78 0 0 1 99.95645425366854 73.01815951930593 L 110.74131682927471 98.85779456365765 A 50 50 0 0 0 93.38637591259263 110.94941217561694 Z" fill="#ff3e00"/><path d="M 99.95645425366854 73.01815951930593 A 78 78 0 0 1 111.04342040587494 69.33859576976117 L 117.8483464140224 96.499099852411 A 50 50 0 0 0 110.74131682927471 98.85779456365765 Z" fill="#178600"/><path d="M 111.04342040587494 69.33859576976117 A 78 78 0 0 1 121.75490318161968 67.43700380686977 L 124.71468152667929 95.28013064542934 A 50 50 0 0 0 117.8483464140224 96.499099852411 Z" fill="#e34c26"/><path d="M 121.75490318161968 67.43700380686977 A 78 78 0 0 1 129.08402538292958 67.0053784514542 L 129.4128367839292 95.00344772529115 A 50 50 0 0 0 124.71468152667929 95.28013064542934 Z" fill="#A97BFF"/><path d="M 129.08402538292958 67.0053784514542 A 78 78 0 0 1 129.99999999999997 67 L 130 95 A 50 50 0 0 0 129.4128367839292 95.00344772529115 Z" fill="#89e051"/>
  
    <rect x="290" y="69" width="12" height="12" rx="3" fill="#3178c6"/>
    <text x="312" y="80" class="lang-name">TypeScript</text>
    <text x="599" y="80" class="lang-pct" text-anchor="end">33.12%</text>
    <rect x="290" y="99" width="12" height="12" rx="3" fill="#dea584"/>
    <text x="312" y="110" class="lang-name">Rust</text>
    <text x="599" y="110" class="lang-pct" text-anchor="end">22.04%</text>
    <rect x="290" y="129" width="12" height="12" rx="3" fill="#663399"/>
    <text x="312" y="140" class="lang-name">CSS</text>
    <text x="599" y="140" class="lang-pct" text-anchor="end">11.91%</text>
    <rect x="290" y="159" width="12" height="12" rx="3" fill="#f1e05a"/>
    <text x="312" y="170" class="lang-name">JavaScript</text>
    <text x="599" y="170" class="lang-pct" text-anchor="end">11.30%</text>
    <rect x="290" y="189" width="12" height="12" rx="3" fill="#3572A5"/>
    <text x="312" y="200" class="lang-name">Python</text>
    <text x="599" y="200" class="lang-pct" text-anchor="end">8.55%</text>
    <rect x="629" y="69" width="12" height="12" rx="3" fill="#ff3e00"/>
    <text x="651" y="80" class="lang-name">Svelte</text>
    <text x="938" y="80" class="lang-pct" text-anchor="end">6.78%</text>
    <rect x="629" y="99" width="12" height="12" rx="3" fill="#178600"/>
    <text x="651" y="110" class="lang-name">C#</text>
    <text x="938" y="110" class="lang-pct" text-anchor="end">2.39%</text>
    <rect x="629" y="129" width="12" height="12" rx="3" fill="#e34c26"/>
    <text x="651" y="140" class="lang-name">HTML</text>
    <text x="938" y="140" class="lang-pct" text-anchor="end">2.22%</text>
    <rect x="629" y="159" width="12" height="12" rx="3" fill="#A97BFF"/>
    <text x="651" y="170" class="lang-name">Kotlin</text>
    <text x="938" y="170" class="lang-pct" text-anchor="end">1.50%</text>
    <rect x="629" y="189" width="12" height="12" rx="3" fill="#89e051"/>
    <text x="651" y="200" class="lang-name">Shell</text>
    <text x="938" y="200" class="lang-pct" text-anchor="end">0.19%</text>
</svg>