<svg xmlns="http://www.w3.org/2000/svg" width="968" height="250" viewBox="0 0 968 250" fill="none" role="img">
  <rect width="968" height="250" fill="#0a192f" rx="6"/>
  <style>
    .title { font: 700 15px "Segoe UI", Helvetica, sans-serif; fill: #64ffda; letter-spacing: 0.5px; }
    .lang-name { font: 600 13px "Segoe UI", Helvetica, sans-serif; fill: #ccd6f6; }
    .lang-pct { font: 400 13px "Segoe UI", Helvetica, sans-serif; fill: #8892b0; }
  </style>
  <text x="30" y="30" class="title">Most Used Languages</text>
  <path d="M 130 67 A 78 78 0 0 1 197.9172975554362 183.35675550364422 L 173.53672920220268 169.58766378438733 A 50 50 0 0 0 130 95 Z" fill="#3178c6"/><path d="M 197.9172975554362 183.35675550364422 A 78 78 0 0 1 106.42503410342277 219.3520072558584 L 114.88784237398896 192.66154311272976 A 50 50 0 0 0 173.53672920220268 169.58766378438733 Z" fill="#dea584"/><path d="M 106.42503410342277 219.3520072558584 A 78 78 0 0 1 62.31923721778003 183.7725979167874 L 86.61489565242309 169.85422943383807 A 50 50 0 0 0 114.88784237398896 192.66154311272976 Z" fill="#663399"/><path d="M 62.31923721778003 183.7725979167874 A 78 78 0 0 1 53.512697402648854 129.71299436183654 L 80.9696778222108 135.2006374114337 A 50 50 0 0 0 86.61489565242309 169.85422943383807 Z" fill="#f1e05a"/><path d="M 53.512697402648854 129.71299436183654 A 78 78 0 0 1 72.42159452901632 92.38130348042631 L 93.09076572372841 111.2700663336066 A 50 50 0 0 0 80.9696778222108 135.2006374114337 Z" fill="#3572A5"/><path d="M 72.42159452901632 92.38130348042631 A 78 78 0 0 1 99.65457957491692 73.14489956012204 L 110.54780741981854 98.93903817956542 A 50 50 0 0 0 93.09076572372841 111.2700663336066 Z" fill="#ff3e00"/><path d="M 99.65457957491692 73.14489956012204 A 78 78 0 0 1 110.84630443679595 69.38825523589541 L 117.72199002358715 96.5309328435227 A 50 50 0 0 0 110.54780741981854 98.93903817956542 Z" fill="#178600"/><path d="M 110.84630443679595 69.38825523589541 A 78 78 0 0 1 121.6677074651438 67.44632245268069 L 124.65878683663064 95.28610413633378 A 50 50 0 0 0 117.72199002358715 96.5309328435227 Z" fill="#e34c26"/><path d="M 121.6677074651438 67.44632245268069 A 78 78 0 0 1 129.07430202011335 67.00549324952408 L 129.40660385904704 95.00352131379749 A 50 50 0 0 0 124.65878683663064 95.28610413633378 Z" fill="#A97BFF"/><path d="M 129.07430202011335 67.00549324952408 A 78 78 0 0 1 129.99999999999997 67 L 130 95 A 50 50 0 0 0 129.40660385904704 95.00352131379749 Z" fill="#89e051"/>
  
    <rect x="290" y="69" width="12" height="12" rx="3" fill="#3178c6"/>
    <text x="312" y="80" class="lang-name">TypeScript</text>
    <text x="599" y="80" class="lang-pct" text-anchor="end">33.18%</text>
    <rect x="290" y="99" width="12" height="12" rx="3" fill="#dea584"/>
    <text x="312" y="110" class="lang-name">Rust</text>
    <text x="599" y="110" class="lang-pct" text-anchor="end">21.70%</text>
    <rect x="290" y="129" width="12" height="12" rx="3" fill="#663399"/>
    <text x="312" y="140" class="lang-name">CSS</text>
    <text x="599" y="140" class="lang-pct" text-anchor="end">11.83%</text>
    <rect x="290" y="159" width="12" height="12" rx="3" fill="#f1e05a"/>
    <text x="312" y="170" class="lang-name">JavaScript</text>
    <text x="599" y="170" class="lang-pct" text-anchor="end">11.42%</text>
    <rect x="290" y="189" width="12" height="12" rx="3" fill="#3572A5"/>
    <text x="312" y="200" class="lang-name">Python</text>
    <text x="599" y="200" class="lang-pct" text-anchor="end">8.64%</text>
    <rect x="629" y="69" width="12" height="12" rx="3" fill="#ff3e00"/>
    <text x="651" y="80" class="lang-name">Svelte</text>
    <text x="938" y="80" class="lang-pct" text-anchor="end">6.86%</text>
    <rect x="629" y="99" width="12" height="12" rx="3" fill="#178600"/>
    <text x="651" y="110" class="lang-name">C#</text>
    <text x="938" y="110" class="lang-pct" text-anchor="end">2.41%</text>
    <rect x="629" y="129" width="12" height="12" rx="3" fill="#e34c26"/>
    <text x="651" y="140" class="lang-name">HTML</text>
    <text x="938" y="140" class="lang-pct" text-anchor="end">2.25%</text>
    <rect x="629" y="159" width="12" height="12" rx="3" fill="#A97BFF"/>
    <text x="651" y="170" class="lang-name">Kotlin</text>
    <text x="938" y="170" class="lang-pct" text-anchor="end">1.51%</text>
    <rect x="629" y="189" width="12" height="12" rx="3" fill="#89e051"/>
    <text x="651" y="200" class="lang-name">Shell</text>
    <text x="938" y="200" class="lang-pct" text-anchor="end">0.19%</text>
</svg>