<svg xmlns="http://www.w3.org/2000/svg" width="968" height="250" viewBox="0 0 968 250" fill="none" role="img">
  <rect width="968" height="250" fill="#0a192f" rx="6"/>
  <style>
    .title { font: 700 15px "Segoe UI", Helvetica, sans-serif; fill: #64ffda; letter-spacing: 0.5px; }
    .lang-name { font: 600 13px "Segoe UI", Helvetica, sans-serif; fill: #ccd6f6; }
    .lang-pct { font: 400 13px "Segoe UI", Helvetica, sans-serif; fill: #8892b0; }
  </style>
  <text x="30" y="30" class="title">Most Used Languages</text>
  <path d="M 130 67 A 78 78 0 1 1 57.72534447835399 115.6678645641439 L 83.67009261432949 126.19734907957942 A 50 50 0 1 0 130 95 Z" fill="#3178c6"/><path d="M 57.72534447835399 115.6678645641439 A 78 78 0 0 1 76.60855982040901 88.1374102282603 L 95.77471783359552 108.5496219411925 A 50 50 0 0 0 83.67009261432949 126.19734907957942 Z" fill="#dea584"/><path d="M 76.60855982040901 88.1374102282603 A 78 78 0 0 1 92.5837335914243 76.56007738138149 L 106.01521384065661 101.1282547316548 A 50 50 0 0 0 95.77471783359552 108.5496219411925 Z" fill="#00B4AB"/><path d="M 92.5837335914243 76.56007738138149 A 78 78 0 0 1 105.00358549093416 71.11374104956347 L 113.97665736598344 97.63701349330992 A 50 50 0 0 0 106.01521384065661 101.1282547316548 Z" fill="#178600"/><path d="M 105.00358549093416 71.11374104956347 A 78 78 0 0 1 116.6545424148656 68.15015444489573 L 121.44521949670872 95.73727849031778 A 50 50 0 0 0 113.97665736598344 97.63701349330992 Z" fill="#f1e05a"/><path d="M 116.6545424148656 68.15015444489573 A 78 78 0 0 1 122.84083154643879 67.32924419671498 L 125.41078945284538 95.21105397225318 A 50 50 0 0 0 121.44521949670872 95.73727849031778 Z" fill="#663399"/><path d="M 122.84083154643879 67.32924419671498 A 78 78 0 0 1 125.030109029693 67.15849318170119 L 126.81417245493141 95.10159819339819 A 50 50 0 0 0 125.41078945284538 95.21105397225318 Z" fill="#3572A5"/><path d="M 125.030109029693 67.15849318170119 A 78 78 0 0 1 127.0412625182653 67.05613640244553 L 128.10337340914444 95.03598487336251 A 50 50 0 0 0 126.81417245493141 95.10159819339819 Z" fill="#e34c26"/><path d="M 127.0412625182653 67.05613640244553 A 78 78 0 0 1 128.39855534487452 67.01644163660798 L 128.97343291338112 95.01053951064614 A 50 50 0 0 0 128.10337340914444 95.03598487336251 Z" fill="#ff3e00"/><path d="M 128.39855534487452 67.01644163660798 A 78 78 0 0 1 129.144701888643 67.00468946698969 L 129.45173197989936 95.00300606858313 A 50 50 0 0 0 128.97343291338112 95.01053951064614 Z" fill="#89e051"/>
  
    <rect x="290" y="69" width="12" height="12" rx="3" fill="#3178c6"/>
    <text x="312" y="80" class="lang-name">TypeScript</text>
    <text x="599" y="80" class="lang-pct" text-anchor="end">81.14%</text>
    <rect x="290" y="99" width="12" height="12" rx="3" fill="#dea584"/>
    <text x="312" y="110" class="lang-name">Rust</text>
    <text x="599" y="110" class="lang-pct" text-anchor="end">6.86%</text>
    <rect x="290" y="129" width="12" height="12" rx="3" fill="#00B4AB"/>
    <text x="312" y="140" class="lang-name">Dart</text>
    <text x="599" y="140" class="lang-pct" text-anchor="end">4.04%</text>
    <rect x="290" y="159" width="12" height="12" rx="3" fill="#178600"/>
    <text x="312" y="170" class="lang-name">C#</text>
    <text x="599" y="170" class="lang-pct" text-anchor="end">2.77%</text>
    <rect x="290" y="189" width="12" height="12" rx="3" fill="#f1e05a"/>
    <text x="312" y="200" class="lang-name">JavaScript</text>
    <text x="599" y="200" class="lang-pct" text-anchor="end">2.46%</text>
    <rect x="629" y="69" width="12" height="12" rx="3" fill="#663399"/>
    <text x="651" y="80" class="lang-name">CSS</text>
    <text x="938" y="80" class="lang-pct" text-anchor="end">1.27%</text>
    <rect x="629" y="99" width="12" height="12" rx="3" fill="#3572A5"/>
    <text x="651" y="110" class="lang-name">Python</text>
    <text x="938" y="110" class="lang-pct" text-anchor="end">0.45%</text>
    <rect x="629" y="129" width="12" height="12" rx="3" fill="#e34c26"/>
    <text x="651" y="140" class="lang-name">HTML</text>
    <text x="938" y="140" class="lang-pct" text-anchor="end">0.41%</text>
    <rect x="629" y="159" width="12" height="12" rx="3" fill="#ff3e00"/>
    <text x="651" y="170" class="lang-name">Svelte</text>
    <text x="938" y="170" class="lang-pct" text-anchor="end">0.28%</text>
    <rect x="629" y="189" width="12" height="12" rx="3" fill="#89e051"/>
    <text x="651" y="200" class="lang-name">Shell</text>
    <text x="938" y="200" class="lang-pct" text-anchor="end">0.15%</text>
</svg>