<svg xmlns="http://www.w3.org/2000/svg" width="968" height="250" viewBox="0 0 968 250" fill="none" role="img">
  <rect width="968" height="250" fill="#0a192f" rx="6"/>
  <style>
    .title { font: 700 15px "Segoe UI", Helvetica, sans-serif; fill: #64ffda; letter-spacing: 0.5px; }
    .lang-name { font: 600 13px "Segoe UI", Helvetica, sans-serif; fill: #ccd6f6; }
    .lang-pct { font: 400 13px "Segoe UI", Helvetica, sans-serif; fill: #8892b0; }
  </style>
  <text x="30" y="30" class="title">Most Used Languages</text>
  <path d="M 130 67 A 78 78 0 1 1 82.85716918865157 207.14139926886565 L 99.78023665939202 184.8342303005549 A 50 50 0 1 0 130 95 Z" fill="#e34c26"/><path d="M 82.85716918865157 207.14139926886565 A 78 78 0 0 1 52.74773539330987 134.22560381562243 L 80.479317559814 138.09333577924514 A 50 50 0 0 0 99.78023665939202 184.8342303005549 Z" fill="#dea584"/><path d="M 52.74773539330987 134.22560381562243 A 78 78 0 0 1 72.18977159719492 92.63610507214433 L 92.94216128025315 111.43340068727201 A 50 50 0 0 0 80.479317559814 138.09333577924514 Z" fill="#3178c6"/><path d="M 72.18977159719492 92.63610507214433 A 78 78 0 0 1 90.14716956098471 77.9496315744716 L 104.45331382114404 102.01899459902026 A 50 50 0 0 0 92.94216128025315 111.43340068727201 Z" fill="#178600"/><path d="M 90.14716956098471 77.9496315744716 A 78 78 0 0 1 104.25376239076584 71.37166816388643 L 113.49600153254221 97.80235138710668 A 50 50 0 0 0 104.45331382114404 102.01899459902026 Z" fill="#663399"/><path d="M 104.25376239076584 71.37166816388643 A 78 78 0 0 1 114.93122246119114 68.46940518011186 L 120.34052721871227 95.9419263975076 A 50 50 0 0 0 113.49600153254221 97.80235138710668 Z" fill="#f1e05a"/><path d="M 114.93122246119114 68.46940518011186 A 78 78 0 0 1 121.9244540158756 67.41916759238599 L 124.82336795889462 95.2686971746064 A 50 50 0 0 0 120.34052721871227 95.9419263975076 Z" fill="#3572A5"/><path d="M 121.9244540158756 67.41916759238599 A 78 78 0 0 1 127.5208823178204 67.0394075476725 L 128.4108219986028 95.025261248508 A 50 50 0 0 0 124.82336795889462 95.2686971746064 Z" fill="#ff3e00"/><path d="M 127.5208823178204 67.0394075476725 A 78 78 0 0 1 128.75988520601283 67.0098588583292 L 129.20505461923898 95.00631978098025 A 50 50 0 0 0 128.4108219986028 95.025261248508 Z" fill="#A97BFF"/><path d="M 128.75988520601283 67.0098588583292 A 78 78 0 0 1 129.84542855643141 67.00015315611938 L 129.90091574130219 95.0000981769996 A 50 50 0 0 0 129.20505461923898 95.00631978098025 Z" fill="#336790"/>
  
    <rect x="290" y="69" width="12" height="12" rx="3" fill="#e34c26"/>
    <text x="312" y="80" class="lang-name">HTML</text>
    <text x="599" y="80" class="lang-pct" text-anchor="end">60.33%</text>
    <rect x="290" y="99" width="12" height="12" rx="3" fill="#dea584"/>
    <text x="312" y="110" class="lang-name">Rust</text>
    <text x="599" y="110" class="lang-pct" text-anchor="end">16.88%</text>
    <rect x="290" y="129" width="12" height="12" rx="3" fill="#3178c6"/>
    <text x="312" y="140" class="lang-name">TypeScript</text>
    <text x="599" y="140" class="lang-pct" text-anchor="end">9.51%</text>
    <rect x="290" y="159" width="12" height="12" rx="3" fill="#178600"/>
    <text x="312" y="170" class="lang-name">C#</text>
    <text x="599" y="170" class="lang-pct" text-anchor="end">4.75%</text>
    <rect x="290" y="189" width="12" height="12" rx="3" fill="#663399"/>
    <text x="312" y="200" class="lang-name">CSS</text>
    <text x="599" y="200" class="lang-pct" text-anchor="end">3.18%</text>
    <rect x="629" y="69" width="12" height="12" rx="3" fill="#f1e05a"/>
    <text x="651" y="80" class="lang-name">JavaScript</text>
    <text x="938" y="80" class="lang-pct" text-anchor="end">2.26%</text>
    <rect x="629" y="99" width="12" height="12" rx="3" fill="#3572A5"/>
    <text x="651" y="110" class="lang-name">Python</text>
    <text x="938" y="110" class="lang-pct" text-anchor="end">1.44%</text>
    <rect x="629" y="129" width="12" height="12" rx="3" fill="#ff3e00"/>
    <text x="651" y="140" class="lang-name">Svelte</text>
    <text x="938" y="140" class="lang-pct" text-anchor="end">1.14%</text>
    <rect x="629" y="159" width="12" height="12" rx="3" fill="#A97BFF"/>
    <text x="651" y="170" class="lang-name">Kotlin</text>
    <text x="938" y="170" class="lang-pct" text-anchor="end">0.25%</text>
    <rect x="629" y="189" width="12" height="12" rx="3" fill="#336790"/>
    <text x="651" y="200" class="lang-name">PLpgSQL</text>
    <text x="938" y="200" class="lang-pct" text-anchor="end">0.22%</text>
</svg>