<svg xmlns="http://www.w3.org/2000/svg" width="968" height="250" viewBox="0 0 968 250" fill="none" role="img">
  <rect width="968" height="250" fill="#0a192f" rx="6"/>
  <style>
    .title { font: 700 15px "Segoe UI", Helvetica, sans-serif; fill: #64ffda; letter-spacing: 0.5px; }
    .lang-name { font: 600 13px "Segoe UI", Helvetica, sans-serif; fill: #ccd6f6; }
    .lang-pct { font: 400 13px "Segoe UI", Helvetica, sans-serif; fill: #8892b0; }
  </style>
  <text x="30" y="30" class="title">Most Used Languages</text>
  <path d="M 130 67 A 78 78 0 1 1 60.19485847639801 110.1970947064775 L 85.25311440794744 122.69044532466506 A 50 50 0 1 0 130 95 Z" fill="#3178c6"/><path d="M 60.19485847639801 110.1970947064775 A 78 78 0 0 1 76.31055180702035 88.41870315436952 L 95.58368705578226 108.72993791946764 A 50 50 0 0 0 85.25311440794744 122.69044532466506 Z" fill="#dea584"/><path d="M 76.31055180702035 88.41870315436952 A 78 78 0 0 1 92.60971406947104 76.54588019678226 L 106.03186799325067 101.11915397229632 A 50 50 0 0 0 95.58368705578226 108.72993791946764 Z" fill="#00B4AB"/><path d="M 92.60971406947104 76.54588019678226 A 78 78 0 0 1 105.3175599857619 71.00826292792189 L 114.17792306779609 97.56939931277044 A 50 50 0 0 0 106.03186799325067 101.11915397229632 Z" fill="#178600"/><path d="M 105.3175599857619 71.00826292792189 A 78 78 0 0 1 117.24462181872582 68.05001411661809 L 121.82347552482425 95.67308597219107 A 50 50 0 0 0 114.17792306779609 97.56939931277044 Z" fill="#f1e05a"/><path d="M 117.24462181872582 68.05001411661809 A 78 78 0 0 1 123.0473394552915 67.31048647758146 L 125.54316631749455 95.19902979332144 A 50 50 0 0 0 121.82347552482425 95.67308597219107 Z" fill="#663399"/><path d="M 123.0473394552915 67.31048647758146 A 78 78 0 0 1 125.28575097067885 67.1425927988252 L 126.9780454940249 95.09140564027257 A 50 50 0 0 0 125.54316631749455 95.19902979332144 Z" fill="#3572A5"/><path d="M 125.28575097067885 67.1425927988252 A 78 78 0 0 1 126.97557508513603 67.0586576075678 L 128.0612660802154 95.03760103049217 A 50 50 0 0 0 126.9780454940249 95.09140564027257 Z" fill="#e34c26"/><path d="M 126.97557508513603 67.0586576075678 A 78 78 0 0 1 128.3629889232794 67.01718013091157 L 128.95063392517912 95.01101290443049 A 50 50 0 0 0 128.0612660802154 95.03760103049217 Z" fill="#ff3e00"/><path d="M 128.3629889232794 67.01718013091157 A 78 78 0 0 1 129.12570463391714 67.00490010511656 L 129.439554252511 95.00314109302343 A 50 50 0 0 0 128.95063392517912 95.01101290443049 Z" fill="#89e051"/>
  
    <rect x="290" y="69" width="12" height="12" rx="3" fill="#3178c6"/>
    <text x="312" y="80" class="lang-name">TypeScript</text>
    <text x="599" y="80" class="lang-pct" text-anchor="end">82.36%</text>
    <rect x="290" y="99" width="12" height="12" rx="3" fill="#dea584"/>
    <text x="312" y="110" class="lang-name">Rust</text>
    <text x="599" y="110" class="lang-pct" text-anchor="end">5.56%</text>
    <rect x="290" y="129" width="12" height="12" rx="3" fill="#00B4AB"/>
    <text x="312" y="140" class="lang-name">Dart</text>
    <text x="599" y="140" class="lang-pct" text-anchor="end">4.13%</text>
    <rect x="290" y="159" width="12" height="12" rx="3" fill="#178600"/>
    <text x="312" y="170" class="lang-name">C#</text>
    <text x="599" y="170" class="lang-pct" text-anchor="end">2.83%</text>
    <rect x="290" y="189" width="12" height="12" rx="3" fill="#f1e05a"/>
    <text x="312" y="200" class="lang-name">JavaScript</text>
    <text x="599" y="200" class="lang-pct" text-anchor="end">2.51%</text>
    <rect x="629" y="69" width="12" height="12" rx="3" fill="#663399"/>
    <text x="651" y="80" class="lang-name">CSS</text>
    <text x="938" y="80" class="lang-pct" text-anchor="end">1.19%</text>
    <rect x="629" y="99" width="12" height="12" rx="3" fill="#3572A5"/>
    <text x="651" y="110" class="lang-name">Python</text>
    <text x="938" y="110" class="lang-pct" text-anchor="end">0.46%</text>
    <rect x="629" y="129" width="12" height="12" rx="3" fill="#e34c26"/>
    <text x="651" y="140" class="lang-name">HTML</text>
    <text x="938" y="140" class="lang-pct" text-anchor="end">0.35%</text>
    <rect x="629" y="159" width="12" height="12" rx="3" fill="#ff3e00"/>
    <text x="651" y="170" class="lang-name">Svelte</text>
    <text x="938" y="170" class="lang-pct" text-anchor="end">0.28%</text>
    <rect x="629" y="189" width="12" height="12" rx="3" fill="#89e051"/>
    <text x="651" y="200" class="lang-name">Shell</text>
    <text x="938" y="200" class="lang-pct" text-anchor="end">0.16%</text>
</svg>