<svg xmlns="http://www.w3.org/2000/svg" width="968" height="250" viewBox="0 0 968 250" fill="none" role="img">
  <rect width="968" height="250" fill="#0a192f" rx="6"/>
  <style>
    .title { font: 700 15px "Segoe UI", Helvetica, sans-serif; fill: #64ffda; letter-spacing: 0.5px; }
    .lang-name { font: 600 13px "Segoe UI", Helvetica, sans-serif; fill: #ccd6f6; }
    .lang-pct { font: 400 13px "Segoe UI", Helvetica, sans-serif; fill: #8892b0; }
  </style>
  <text x="30" y="30" class="title">Most Used Languages</text>
  <path d="M 130 67 A 78 78 0 1 1 58.29176306462473 114.30914214916626 L 84.03318145168252 125.32637317254247 A 50 50 0 1 0 130 95 Z" fill="#3178c6"/><path d="M 58.29176306462473 114.30914214916626 A 78 78 0 0 1 76.50014916067678 88.23939781705829 L 95.70522382094666 108.61499860067839 A 50 50 0 0 0 84.03318145168252 125.32637317254247 Z" fill="#dea584"/><path d="M 76.50014916067678 88.23939781705829 A 78 78 0 0 1 92.52857281806237 76.59026279140706 L 105.9798543705528 101.14760435346606 A 50 50 0 0 0 95.70522382094666 108.61499860067839 Z" fill="#00B4AB"/><path d="M 92.52857281806237 76.59026279140706 A 78 78 0 0 1 104.99991626600345 71.11498248431444 L 113.97430529872017 97.63780928481695 A 50 50 0 0 0 105.9798543705528 101.14760435346606 Z" fill="#178600"/><path d="M 104.99991626600345 71.11498248431444 A 78 78 0 0 1 116.70225085693355 68.14188482841857 L 121.47580183136766 95.73197745411447 A 50 50 0 0 0 113.97430529872017 97.63780928481695 Z" fill="#f1e05a"/><path d="M 116.70225085693355 68.14188482841857 A 78 78 0 0 1 122.88892508641227 67.32482627265425 L 125.44161864513607 95.20822196965017 A 50 50 0 0 0 121.47580183136766 95.73197745411447 Z" fill="#663399"/><path d="M 122.88892508641227 67.32482627265425 A 78 78 0 0 1 125.08783162779545 67.15482929633262 L 126.8511741203817 95.09924954893117 A 50 50 0 0 0 125.44161864513607 95.20822196965017 Z" fill="#3572A5"/><path d="M 125.08783162779545 67.15482929633262 A 78 78 0 0 1 127.02841150964252 67.0566252857629 L 128.09513558310417 95.03629826010442 A 50 50 0 0 0 126.8511741203817 95.09924954893117 Z" fill="#e34c26"/><path d="M 127.02841150964252 67.0566252857629 A 78 78 0 0 1 128.39159723777652 67.0165848365534 L 128.96897258831828 95.01063130548295 A 50 50 0 0 0 128.09513558310417 95.03629826010442 Z" fill="#ff3e00"/><path d="M 128.39159723777652 67.0165848365534 A 78 78 0 0 1 129.14098533330915 67.00473031136818 L 129.44934957263408 95.00303225087704 A 50 50 0 0 0 128.96897258831828 95.01063130548295 Z" fill="#89e051"/>
  
    <rect x="290" y="69" width="12" height="12" rx="3" fill="#3178c6"/>
    <text x="312" y="80" class="lang-name">TypeScript</text>
    <text x="599" y="80" class="lang-pct" text-anchor="end">81.44%</text>
    <rect x="290" y="99" width="12" height="12" rx="3" fill="#dea584"/>
    <text x="312" y="110" class="lang-name">Rust</text>
    <text x="599" y="110" class="lang-pct" text-anchor="end">6.53%</text>
    <rect x="290" y="129" width="12" height="12" rx="3" fill="#00B4AB"/>
    <text x="312" y="140" class="lang-name">Dart</text>
    <text x="599" y="140" class="lang-pct" text-anchor="end">4.05%</text>
    <rect x="290" y="159" width="12" height="12" rx="3" fill="#178600"/>
    <text x="312" y="170" class="lang-name">C#</text>
    <text x="599" y="170" class="lang-pct" text-anchor="end">2.78%</text>
    <rect x="290" y="189" width="12" height="12" rx="3" fill="#f1e05a"/>
    <text x="312" y="200" class="lang-name">JavaScript</text>
    <text x="599" y="200" class="lang-pct" text-anchor="end">2.47%</text>
    <rect x="629" y="69" width="12" height="12" rx="3" fill="#663399"/>
    <text x="651" y="80" class="lang-name">CSS</text>
    <text x="938" y="80" class="lang-pct" text-anchor="end">1.27%</text>
    <rect x="629" y="99" width="12" height="12" rx="3" fill="#3572A5"/>
    <text x="651" y="110" class="lang-name">Python</text>
    <text x="938" y="110" class="lang-pct" text-anchor="end">0.45%</text>
    <rect x="629" y="129" width="12" height="12" rx="3" fill="#e34c26"/>
    <text x="651" y="140" class="lang-name">HTML</text>
    <text x="938" y="140" class="lang-pct" text-anchor="end">0.40%</text>
    <rect x="629" y="159" width="12" height="12" rx="3" fill="#ff3e00"/>
    <text x="651" y="170" class="lang-name">Svelte</text>
    <text x="938" y="170" class="lang-pct" text-anchor="end">0.28%</text>
    <rect x="629" y="189" width="12" height="12" rx="3" fill="#89e051"/>
    <text x="651" y="200" class="lang-name">Shell</text>
    <text x="938" y="200" class="lang-pct" text-anchor="end">0.15%</text>
</svg>