<svg xmlns="http://www.w3.org/2000/svg" width="968" height="250" viewBox="0 0 968 250" fill="none" role="img">
  <rect width="968" height="250" fill="#0a192f" rx="6"/>
  <style>
    .title { font: 700 15px "Segoe UI", Helvetica, sans-serif; fill: #64ffda; letter-spacing: 0.5px; }
    .lang-name { font: 600 13px "Segoe UI", Helvetica, sans-serif; fill: #ccd6f6; }
    .lang-pct { font: 400 13px "Segoe UI", Helvetica, sans-serif; fill: #8892b0; }
  </style>
  <text x="30" y="30" class="title">Most Used Languages</text>
  <path d="M 130 67 A 78 78 0 0 1 204.41164666576105 168.38603943573878 L 177.699773503693 159.99105092034537 A 50 50 0 0 0 130 95 Z" fill="#3178c6"/><path d="M 204.41164666576105 168.38603943573878 A 78 78 0 0 1 103.91927019421419 218.5105130766858 L 113.28158345782961 192.1221237671063 A 50 50 0 0 0 177.699773503693 159.99105092034537 Z" fill="#dea584"/><path d="M 103.91927019421419 218.5105130766858 A 78 78 0 0 1 63.50329160106676 185.76993711188726 L 87.37390487247869 171.1345750717226 A 50 50 0 0 0 113.28158345782961 192.1221237671063 Z" fill="#663399"/><path d="M 63.50329160106676 185.76993711188726 A 78 78 0 0 1 52.37886341546093 137.32151347436692 L 80.242861163757 140.0778932527993 A 50 50 0 0 0 87.37390487247869 171.1345750717226 Z" fill="#f1e05a"/><path d="M 52.37886341546093 137.32151347436692 A 78 78 0 0 1 63.34849494198863 104.48362215718333 L 87.27467624486451 119.02796292127135 A 50 50 0 0 0 80.242861163757 140.0778932527993 Z" fill="#178600"/><path d="M 63.34849494198863 104.48362215718333 A 78 78 0 0 1 87.32912064654903 79.70684526534784 L 102.64687220932629 103.14541363163323 A 50 50 0 0 0 87.27467624486451 119.02796292127135 Z" fill="#3572A5"/><path d="M 87.32912064654903 79.70684526534784 A 78 78 0 0 1 112.57306366331501 68.97170336041239 L 118.82888696366346 96.26391241052076 A 50 50 0 0 0 102.64687220932629 103.14541363163323 Z" fill="#ff3e00"/><path d="M 112.57306366331501 68.97170336041239 A 78 78 0 0 1 123.15772563391391 67.30068673727418 L 125.61392668840635 95.19274790850909 A 50 50 0 0 0 118.82888696366346 96.26391241052076 Z" fill="#e34c26"/><path d="M 123.15772563391391 67.30068673727418 A 78 78 0 0 1 129.24030770560117 67.00369965429238 L 129.51301776000076 95.00237157326434 A 50 50 0 0 0 125.61392668840635 95.19274790850909 Z" fill="#A97BFF"/><path d="M 129.24030770560117 67.00369965429238 A 78 78 0 0 1 129.99999999999997 67 L 130 95 A 50 50 0 0 0 129.51301776000076 95.00237157326434 Z" fill="#89e051"/>
  
    <rect x="290" y="69" width="12" height="12" rx="3" fill="#3178c6"/>
    <text x="312" y="80" class="lang-name">TypeScript</text>
    <text x="599" y="80" class="lang-pct" text-anchor="end">29.85%</text>
    <rect x="290" y="99" width="12" height="12" rx="3" fill="#dea584"/>
    <text x="312" y="110" class="lang-name">Rust</text>
    <text x="599" y="110" class="lang-pct" text-anchor="end">25.58%</text>
    <rect x="290" y="129" width="12" height="12" rx="3" fill="#663399"/>
    <text x="312" y="140" class="lang-name">CSS</text>
    <text x="599" y="140" class="lang-pct" text-anchor="end">10.82%</text>
    <rect x="290" y="159" width="12" height="12" rx="3" fill="#f1e05a"/>
    <text x="312" y="170" class="lang-name">JavaScript</text>
    <text x="599" y="170" class="lang-pct" text-anchor="end">10.32%</text>
    <rect x="290" y="189" width="12" height="12" rx="3" fill="#178600"/>
    <text x="312" y="200" class="lang-name">C#</text>
    <text x="599" y="200" class="lang-pct" text-anchor="end">7.12%</text>
    <rect x="629" y="69" width="12" height="12" rx="3" fill="#3572A5"/>
    <text x="651" y="80" class="lang-name">Python</text>
    <text x="938" y="80" class="lang-pct" text-anchor="end">7.09%</text>
    <rect x="629" y="99" width="12" height="12" rx="3" fill="#ff3e00"/>
    <text x="651" y="110" class="lang-name">Svelte</text>
    <text x="938" y="110" class="lang-pct" text-anchor="end">5.63%</text>
    <rect x="629" y="129" width="12" height="12" rx="3" fill="#e34c26"/>
    <text x="651" y="140" class="lang-name">HTML</text>
    <text x="938" y="140" class="lang-pct" text-anchor="end">2.19%</text>
    <rect x="629" y="159" width="12" height="12" rx="3" fill="#A97BFF"/>
    <text x="651" y="170" class="lang-name">Kotlin</text>
    <text x="938" y="170" class="lang-pct" text-anchor="end">1.24%</text>
    <rect x="629" y="189" width="12" height="12" rx="3" fill="#89e051"/>
    <text x="651" y="200" class="lang-name">Shell</text>
    <text x="938" y="200" class="lang-pct" text-anchor="end">0.16%</text>
</svg>