<svg xmlns="http://www.w3.org/2000/svg" width="968" height="250" viewBox="0 0 968 250" fill="none" role="img">
  <rect width="968" height="250" fill="#0a192f" rx="6"/>
  <style>
    .title { font: 700 15px "Segoe UI", Helvetica, sans-serif; fill: #64ffda; letter-spacing: 0.5px; }
    .lang-name { font: 600 13px "Segoe UI", Helvetica, sans-serif; fill: #ccd6f6; }
    .lang-pct { font: 400 13px "Segoe UI", Helvetica, sans-serif; fill: #8892b0; }
  </style>
  <text x="30" y="30" class="title">Most Used Languages</text>
  <path d="M 130 67 A 78 78 0 1 1 66.09205593277673 100.28115961811326 L 89.03336918767741 116.33407667827774 A 50 50 0 1 0 130 95 Z" fill="#3178c6"/><path d="M 66.09205593277673 100.28115961811326 A 78 78 0 0 1 81.0251976850613 84.2919384413184 L 98.60589595196237 106.08457592392205 A 50 50 0 0 0 89.03336918767741 116.33407667827774 Z" fill="#dea584"/><path d="M 81.0251976850613 84.2919384413184 A 78 78 0 0 1 93.00862859757021 76.32949365435333 L 106.28758243433988 100.98044465022649 A 50 50 0 0 0 98.60589595196237 106.08457592392205 Z" fill="#178600"/><path d="M 93.00862859757021 76.32949365435333 A 78 78 0 0 1 105.60137177197655 70.91419204334277 L 114.35985369998497 97.50909746368126 A 50 50 0 0 0 106.28758243433988 100.98044465022649 Z" fill="#00B4AB"/><path d="M 105.60137177197655 70.91419204334277 A 78 78 0 0 1 118.00164576001985 67.92834830151912 L 122.308747282064 95.59509506507636 A 50 50 0 0 0 114.35985369998497 97.50909746368126 Z" fill="#f1e05a"/><path d="M 118.00164576001985 67.92834830151912 A 78 78 0 0 1 122.79375473479634 67.33359780974962 L 125.38061200948484 95.2138447498395 A 50 50 0 0 0 122.308747282064 95.59509506507636 Z" fill="#663399"/><path d="M 122.79375473479634 67.33359780974962 A 78 78 0 0 1 125.11679213063054 67.15300724559408 L 126.869738545276 95.09808156768851 A 50 50 0 0 0 125.38061200948484 95.2138447498395 Z" fill="#3572A5"/><path d="M 125.11679213063054 67.15300724559408 A 78 78 0 0 1 126.86063414197537 67.06320264464628 L 127.98758598844576 95.0405145157989 A 50 50 0 0 0 126.869738545276 95.09808156768851 Z" fill="#e34c26"/><path d="M 126.86063414197537 67.06320264464628 A 78 78 0 0 1 128.3007522280798 67.01851144656429 L 128.91073860774347 95.01186631190018 A 50 50 0 0 0 127.98758598844576 95.0405145157989 Z" fill="#ff3e00"/><path d="M 128.3007522280798 67.01851144656429 A 78 78 0 0 1 129.09246154999846 67.0052798327876 L 129.41824458333235 95.00338450819717 A 50 50 0 0 0 128.91073860774347 95.01186631190018 Z" fill="#89e051"/>
  
    <rect x="290" y="69" width="12" height="12" rx="3" fill="#3178c6"/>
    <text x="312" y="80" class="lang-name">TypeScript</text>
    <text x="599" y="80" class="lang-pct" text-anchor="end">84.72%</text>
    <rect x="290" y="99" width="12" height="12" rx="3" fill="#dea584"/>
    <text x="312" y="110" class="lang-name">Rust</text>
    <text x="599" y="110" class="lang-pct" text-anchor="end">4.48%</text>
    <rect x="290" y="129" width="12" height="12" rx="3" fill="#178600"/>
    <text x="312" y="140" class="lang-name">C#</text>
    <text x="599" y="140" class="lang-pct" text-anchor="end">2.94%</text>
    <rect x="290" y="159" width="12" height="12" rx="3" fill="#00B4AB"/>
    <text x="312" y="170" class="lang-name">Dart</text>
    <text x="599" y="170" class="lang-pct" text-anchor="end">2.80%</text>
    <rect x="290" y="189" width="12" height="12" rx="3" fill="#f1e05a"/>
    <text x="312" y="200" class="lang-name">JavaScript</text>
    <text x="599" y="200" class="lang-pct" text-anchor="end">2.61%</text>
    <rect x="629" y="69" width="12" height="12" rx="3" fill="#663399"/>
    <text x="651" y="80" class="lang-name">CSS</text>
    <text x="938" y="80" class="lang-pct" text-anchor="end">0.99%</text>
    <rect x="629" y="99" width="12" height="12" rx="3" fill="#3572A5"/>
    <text x="651" y="110" class="lang-name">Python</text>
    <text x="938" y="110" class="lang-pct" text-anchor="end">0.48%</text>
    <rect x="629" y="129" width="12" height="12" rx="3" fill="#e34c26"/>
    <text x="651" y="140" class="lang-name">HTML</text>
    <text x="938" y="140" class="lang-pct" text-anchor="end">0.36%</text>
    <rect x="629" y="159" width="12" height="12" rx="3" fill="#ff3e00"/>
    <text x="651" y="170" class="lang-name">Svelte</text>
    <text x="938" y="170" class="lang-pct" text-anchor="end">0.29%</text>
    <rect x="629" y="189" width="12" height="12" rx="3" fill="#89e051"/>
    <text x="651" y="200" class="lang-name">Shell</text>
    <text x="938" y="200" class="lang-pct" text-anchor="end">0.16%</text>
</svg>