<svg xmlns="http://www.w3.org/2000/svg" width="968" height="250" viewBox="0 0 968 250" fill="none" role="img">
  <rect width="968" height="250" fill="#0a192f" rx="6"/>
  <style>
    .title { font: 700 15px "Segoe UI", Helvetica, sans-serif; fill: #64ffda; letter-spacing: 0.5px; }
    .lang-name { font: 600 13px "Segoe UI", Helvetica, sans-serif; fill: #ccd6f6; }
    .lang-pct { font: 400 13px "Segoe UI", Helvetica, sans-serif; fill: #8892b0; }
  </style>
  <text x="30" y="30" class="title">Most Used Languages</text>
  <path d="M 130 67 A 78 78 0 0 1 197.21693581783376 184.5712463698229 L 173.08777937040625 170.36618357039927 A 50 50 0 0 0 130 95 Z" fill="#3178c6"/><path d="M 197.21693581783376 184.5712463698229 A 78 78 0 0 1 104.9276740974428 218.86053393955368 L 113.9279962163095 192.34649611509852 A 50 50 0 0 0 173.08777937040625 170.36618357039927 Z" fill="#dea584"/><path d="M 104.9276740974428 218.86053393955368 A 78 78 0 0 1 61.30406444289582 181.94412589213866 L 85.96414387365117 168.68213198214016 A 50 50 0 0 0 113.9279962163095 192.34649611509852 Z" fill="#663399"/><path d="M 61.30406444289582 181.94412589213866 A 78 78 0 0 1 53.331774364094144 130.64788594520553 L 80.85370151544497 135.79992688795227 A 50 50 0 0 0 85.96414387365117 168.68213198214016 Z" fill="#f1e05a"/><path d="M 53.331774364094144 130.64788594520553 A 78 78 0 0 1 72.03481126714895 92.80769314194899 L 92.84282773535189 111.5433930397109 A 50 50 0 0 0 80.85370151544497 135.79992688795227 Z" fill="#3572A5"/><path d="M 72.03481126714895 92.80769314194899 A 78 78 0 0 1 99.39956585312723 73.25312947575412 L 110.38433708533796 99.00841633061162 A 50 50 0 0 0 92.84282773535189 111.5433930397109 Z" fill="#ff3e00"/><path d="M 99.39956585312723 73.25312947575412 A 78 78 0 0 1 110.67961641736247 69.43067567974589 L 117.61513872907851 96.55812543573454 A 50 50 0 0 0 110.38433708533796 99.00841633061162 Z" fill="#178600"/><path d="M 110.67961641736247 69.43067567974589 A 78 78 0 0 1 121.59393507810304 67.45428398338916 L 124.61149684493785 95.29120768165973 A 50 50 0 0 0 117.61513872907851 96.55812543573454 Z" fill="#e34c26"/><path d="M 121.59393507810304 67.45428398338916 A 78 78 0 0 1 129.06607461313908 67.00559133263606 L 129.40132988021736 95.00358418758722 A 50 50 0 0 0 124.61149684493785 95.29120768165973 Z" fill="#A97BFF"/><path d="M 129.06607461313908 67.00559133263606 A 78 78 0 0 1 130.00000000000006 67 L 130.00000000000003 95 A 50 50 0 0 0 129.40132988021736 95.00358418758722 Z" fill="#89e051"/>
  
    <rect x="290" y="69" width="12" height="12" rx="3" fill="#3178c6"/>
    <text x="312" y="80" class="lang-name">TypeScript</text>
    <text x="599" y="80" class="lang-pct" text-anchor="end">33.47%</text>
    <rect x="290" y="99" width="12" height="12" rx="3" fill="#dea584"/>
    <text x="312" y="110" class="lang-name">Rust</text>
    <text x="599" y="110" class="lang-pct" text-anchor="end">21.74%</text>
    <rect x="290" y="129" width="12" height="12" rx="3" fill="#663399"/>
    <text x="312" y="140" class="lang-name">CSS</text>
    <text x="599" y="140" class="lang-pct" text-anchor="end">11.94%</text>
    <rect x="290" y="159" width="12" height="12" rx="3" fill="#f1e05a"/>
    <text x="312" y="170" class="lang-name">JavaScript</text>
    <text x="599" y="170" class="lang-pct" text-anchor="end">10.80%</text>
    <rect x="290" y="189" width="12" height="12" rx="3" fill="#3572A5"/>
    <text x="312" y="200" class="lang-name">Python</text>
    <text x="599" y="200" class="lang-pct" text-anchor="end">8.72%</text>
    <rect x="629" y="69" width="12" height="12" rx="3" fill="#ff3e00"/>
    <text x="651" y="80" class="lang-name">Svelte</text>
    <text x="938" y="80" class="lang-pct" text-anchor="end">6.92%</text>
    <rect x="629" y="99" width="12" height="12" rx="3" fill="#178600"/>
    <text x="651" y="110" class="lang-name">C#</text>
    <text x="938" y="110" class="lang-pct" text-anchor="end">2.43%</text>
    <rect x="629" y="129" width="12" height="12" rx="3" fill="#e34c26"/>
    <text x="651" y="140" class="lang-name">HTML</text>
    <text x="938" y="140" class="lang-pct" text-anchor="end">2.27%</text>
    <rect x="629" y="159" width="12" height="12" rx="3" fill="#A97BFF"/>
    <text x="651" y="170" class="lang-name">Kotlin</text>
    <text x="938" y="170" class="lang-pct" text-anchor="end">1.53%</text>
    <rect x="629" y="189" width="12" height="12" rx="3" fill="#89e051"/>
    <text x="651" y="200" class="lang-name">Shell</text>
    <text x="938" y="200" class="lang-pct" text-anchor="end">0.19%</text>
</svg>