<svg xmlns="http://www.w3.org/2000/svg" width="968" height="250" viewBox="0 0 968 250" fill="none" role="img">
  <rect width="968" height="250" fill="#0a192f" rx="6"/>
  <style>
    .title { font: 700 15px "Segoe UI", Helvetica, sans-serif; fill: #64ffda; letter-spacing: 0.5px; }
    .lang-name { font: 600 13px "Segoe UI", Helvetica, sans-serif; fill: #ccd6f6; }
    .lang-pct { font: 400 13px "Segoe UI", Helvetica, sans-serif; fill: #8892b0; }
  </style>
  <text x="30" y="30" class="title">Most Used Languages</text>
  <path d="M 130 67 A 78 78 0 1 1 79.31494411215158 85.71235280730326 L 97.50957955907151 106.99509795339952 A 50 50 0 1 0 130 95 Z" fill="#3178c6"/><path d="M 79.31494411215158 85.71235280730326 A 78 78 0 0 1 98.72657377988541 73.54390989947008 L 109.95293191018295 99.19481403812185 A 50 50 0 0 0 97.50957955907151 106.99509795339952 Z" fill="#dea584"/><path d="M 98.72657377988541 73.54390989947008 A 78 78 0 0 1 113.05052504804016 68.86383711498927 L 119.1349519538719 96.19476738140338 A 50 50 0 0 0 109.95293191018295 99.19481403812185 Z" fill="#178600"/><path d="M 113.05052504804016 68.86383711498927 A 78 78 0 0 1 118.02093579361295 67.925347741691 L 122.32111268821343 95.5931716292891 A 50 50 0 0 0 119.1349519538719 96.19476738140338 Z" fill="#663399"/><path d="M 118.02093579361295 67.925347741691 A 78 78 0 0 1 122.46424109466872 67.36487690664282 L 125.16938531709533 95.23389545297617 A 50 50 0 0 0 122.32111268821343 95.5931716292891 Z" fill="#f1e05a"/><path d="M 122.46424109466872 67.36487690664282 A 78 78 0 0 1 124.89696257567648 67.16710843707557 L 126.72882216389517 95.10712079299716 A 50 50 0 0 0 125.16938531709533 95.23389545297617 Z" fill="#3572A5"/><path d="M 124.89696257567648 67.16710843707557 A 78 78 0 0 1 126.66893947508026 67.07116043607911 L 127.86470479171813 95.04561566415327 A 50 50 0 0 0 126.72882216389517 95.10712079299716 Z" fill="#e34c26"/><path d="M 126.66893947508026 67.07116043607911 A 78 78 0 0 1 128.17738341926787 67.02129733831397 L 128.83165603799222 95.01365213994485 A 50 50 0 0 0 127.86470479171813 95.04561566415327 Z" fill="#ff3e00"/><path d="M 128.17738341926787 67.02129733831397 A 78 78 0 0 1 129.00669026490672 67.00632502715257 L 129.3632629903248 95.00405450458499 A 50 50 0 0 0 128.83165603799222 95.01365213994485 Z" fill="#89e051"/><path d="M 129.00669026490672 67.00632502715257 A 78 78 0 0 1 129.59074075801422 67.00107368128168 L 129.7376543320604 95.00068825723184 A 50 50 0 0 0 129.3632629903248 95.00405450458499 Z" fill="#336790"/>
  
    <rect x="290" y="69" width="12" height="12" rx="3" fill="#3178c6"/>
    <text x="312" y="80" class="lang-name">TypeScript</text>
    <text x="599" y="80" class="lang-pct" text-anchor="end">88.74%</text>
    <rect x="290" y="99" width="12" height="12" rx="3" fill="#dea584"/>
    <text x="312" y="110" class="lang-name">Rust</text>
    <text x="599" y="110" class="lang-pct" text-anchor="end">4.69%</text>
    <rect x="290" y="129" width="12" height="12" rx="3" fill="#178600"/>
    <text x="312" y="140" class="lang-name">C#</text>
    <text x="599" y="140" class="lang-pct" text-anchor="end">3.08%</text>
    <rect x="290" y="159" width="12" height="12" rx="3" fill="#663399"/>
    <text x="312" y="170" class="lang-name">CSS</text>
    <text x="599" y="170" class="lang-pct" text-anchor="end">1.03%</text>
    <rect x="290" y="189" width="12" height="12" rx="3" fill="#f1e05a"/>
    <text x="312" y="200" class="lang-name">JavaScript</text>
    <text x="599" y="200" class="lang-pct" text-anchor="end">0.91%</text>
    <rect x="629" y="69" width="12" height="12" rx="3" fill="#3572A5"/>
    <text x="651" y="80" class="lang-name">Python</text>
    <text x="938" y="80" class="lang-pct" text-anchor="end">0.50%</text>
    <rect x="629" y="99" width="12" height="12" rx="3" fill="#e34c26"/>
    <text x="651" y="110" class="lang-name">HTML</text>
    <text x="938" y="110" class="lang-pct" text-anchor="end">0.36%</text>
    <rect x="629" y="129" width="12" height="12" rx="3" fill="#ff3e00"/>
    <text x="651" y="140" class="lang-name">Svelte</text>
    <text x="938" y="140" class="lang-pct" text-anchor="end">0.31%</text>
    <rect x="629" y="159" width="12" height="12" rx="3" fill="#89e051"/>
    <text x="651" y="170" class="lang-name">Shell</text>
    <text x="938" y="170" class="lang-pct" text-anchor="end">0.17%</text>
    <rect x="629" y="189" width="12" height="12" rx="3" fill="#336790"/>
    <text x="651" y="200" class="lang-name">PLpgSQL</text>
    <text x="938" y="200" class="lang-pct" text-anchor="end">0.12%</text>
</svg>