<svg xmlns="http://www.w3.org/2000/svg" width="968" height="250" viewBox="0 0 968 250" fill="none" role="img">
  <rect width="968" height="250" fill="#0a192f" rx="6"/>
  <style>
    .title { font: 700 15px "Segoe UI", Helvetica, sans-serif; fill: #64ffda; letter-spacing: 0.5px; }
    .lang-name { font: 600 13px "Segoe UI", Helvetica, sans-serif; fill: #ccd6f6; }
    .lang-pct { font: 400 13px "Segoe UI", Helvetica, sans-serif; fill: #8892b0; }
  </style>
  <text x="30" y="30" class="title">Most Used Languages</text>
  <path d="M 130 67 A 78 78 0 0 1 195.54301220967653 187.28609169079348 L 172.01475141645932 172.10646903255991 A 50 50 0 0 0 130 95 Z" fill="#dea584"/><path d="M 195.54301220967653 187.28609169079348 A 78 78 0 0 1 79.25157336891525 204.23341282139168 L 97.46895728776619 182.97013642396902 A 50 50 0 0 0 172.01475141645932 172.10646903255991 Z" fill="#3178c6"/><path d="M 79.25157336891525 204.23341282139168 A 78 78 0 0 1 54.161090903530436 163.23348203326577 L 81.38531468175029 156.6881295085037 A 50 50 0 0 0 97.46895728776619 182.97013642396902 Z" fill="#663399"/><path d="M 54.161090903530436 163.23348203326577 A 78 78 0 0 1 55.876935327502224 120.71479290685967 L 82.48521495352708 129.4325595556793 A 50 50 0 0 0 81.38531468175029 156.6881295085037 Z" fill="#f1e05a"/><path d="M 55.876935327502224 120.71479290685967 A 78 78 0 0 1 70.23814332112414 94.87495150831772 L 91.69111751354112 112.86855865917802 A 50 50 0 0 0 82.48521495352708 129.4325595556793 Z" fill="#178600"/><path d="M 70.23814332112414 94.87495150831772 A 78 78 0 0 1 93.07582404968022 76.29333925746481 L 106.33065644210271 100.95726875478513 A 50 50 0 0 0 91.69111751354112 112.86855865917802 Z" fill="#3572A5"/><path d="M 93.07582404968022 76.29333925746481 A 78 78 0 0 1 115.11914193358666 68.43264361878973 L 120.4609884189658 95.91836129409597 A 50 50 0 0 0 106.33065644210271 100.95726875478513 Z" fill="#ff3e00"/><path d="M 115.11914193358666 68.43264361878973 A 78 78 0 0 1 124.16890853761328 67.21826453236416 L 126.2621208574444 95.13991316177189 A 50 50 0 0 0 120.4609884189658 95.91836129409597 Z" fill="#e34c26"/><path d="M 124.16890853761328 67.21826453236416 A 78 78 0 0 1 129.35280409158997 67.00268506252195 L 129.5851308279423 95.00172119392433 A 50 50 0 0 0 126.2621208574444 95.13991316177189 Z" fill="#A97BFF"/><path d="M 129.35280409158997 67.00268506252195 A 78 78 0 0 1 129.99999999999997 67 L 130 95 A 50 50 0 0 0 129.5851308279423 95.00172119392433 Z" fill="#89e051"/>
  
    <rect x="290" y="69" width="12" height="12" rx="3" fill="#dea584"/>
    <text x="312" y="80" class="lang-name">Rust</text>
    <text x="599" y="80" class="lang-pct" text-anchor="end">34.12%</text>
    <rect x="290" y="99" width="12" height="12" rx="3" fill="#3178c6"/>
    <text x="312" y="110" class="lang-name">TypeScript</text>
    <text x="599" y="110" class="lang-pct" text-anchor="end">27.16%</text>
    <rect x="290" y="129" width="12" height="12" rx="3" fill="#663399"/>
    <text x="312" y="140" class="lang-name">CSS</text>
    <text x="599" y="140" class="lang-pct" text-anchor="end">9.97%</text>
    <rect x="290" y="159" width="12" height="12" rx="3" fill="#f1e05a"/>
    <text x="312" y="170" class="lang-name">JavaScript</text>
    <text x="599" y="170" class="lang-pct" text-anchor="end">8.79%</text>
    <rect x="290" y="189" width="12" height="12" rx="3" fill="#178600"/>
    <text x="312" y="200" class="lang-name">C#</text>
    <text x="599" y="200" class="lang-pct" text-anchor="end">6.07%</text>
    <rect x="629" y="69" width="12" height="12" rx="3" fill="#3572A5"/>
    <text x="651" y="80" class="lang-name">Python</text>
    <text x="938" y="80" class="lang-pct" text-anchor="end">6.04%</text>
    <rect x="629" y="99" width="12" height="12" rx="3" fill="#ff3e00"/>
    <text x="651" y="110" class="lang-name">Svelte</text>
    <text x="938" y="110" class="lang-pct" text-anchor="end">4.79%</text>
    <rect x="629" y="129" width="12" height="12" rx="3" fill="#e34c26"/>
    <text x="651" y="140" class="lang-name">HTML</text>
    <text x="938" y="140" class="lang-pct" text-anchor="end">1.86%</text>
    <rect x="629" y="159" width="12" height="12" rx="3" fill="#A97BFF"/>
    <text x="651" y="170" class="lang-name">Kotlin</text>
    <text x="938" y="170" class="lang-pct" text-anchor="end">1.06%</text>
    <rect x="629" y="189" width="12" height="12" rx="3" fill="#89e051"/>
    <text x="651" y="200" class="lang-name">Shell</text>
    <text x="938" y="200" class="lang-pct" text-anchor="end">0.13%</text>
</svg>