<svg xmlns="http://www.w3.org/2000/svg" width="968" height="250" viewBox="0 0 968 250" fill="none" role="img">
  <rect width="968" height="250" fill="#0a192f" rx="6"/>
  <style>
    .title { font: 700 15px "Segoe UI", Helvetica, sans-serif; fill: #64ffda; letter-spacing: 0.5px; }
    .lang-name { font: 600 13px "Segoe UI", Helvetica, sans-serif; fill: #ccd6f6; }
    .lang-pct { font: 400 13px "Segoe UI", Helvetica, sans-serif; fill: #8892b0; }
  </style>
  <text x="30" y="30" class="title">Most Used Languages</text>
  <path d="M 130 67 A 78 78 0 0 1 191.39462703393582 193.1113268510017 L 169.35553014995887 175.8405941352575 A 50 50 0 0 0 130 95 Z" fill="#dea584"/><path d="M 191.39462703393582 193.1113268510017 A 78 78 0 0 1 67.35780734391913 191.47532355173496 L 89.84474829738406 174.79187407162496 A 50 50 0 0 0 169.35553014995887 175.8405941352575 Z" fill="#3178c6"/><path d="M 67.35780734391913 191.47532355173496 A 78 78 0 0 1 52.007003649345094 143.95476306670164 L 80.00448951881096 144.32997632480874 A 50 50 0 0 0 89.84474829738406 174.79187407162496 Z" fill="#663399"/><path d="M 52.007003649345094 143.95476306670164 A 78 78 0 0 1 61.12132975081741 108.39769427065599 L 85.84700625052398 121.53698350683077 A 50 50 0 0 0 80.00448951881096 144.32997632480874 Z" fill="#f1e05a"/><path d="M 61.12132975081741 108.39769427065599 A 78 78 0 0 1 76.57495247388748 88.16898472812035 L 95.75317466274838 108.56986200520535 A 50 50 0 0 0 85.84700625052398 121.53698350683077 Z" fill="#178600"/><path d="M 76.57495247388748 88.16898472812035 A 78 78 0 0 1 97.62299548521932 74.03712534958952 L 109.24550992642264 99.5109777881984 A 50 50 0 0 0 95.75317466274838 108.56986200520535 Z" fill="#3572A5"/><path d="M 97.62299548521932 74.03712534958952 A 78 78 0 0 1 116.87208278057649 68.11269422407906 L 121.5846684490875 95.71326552825582 A 50 50 0 0 0 109.24550992642264 99.5109777881984 Z" fill="#ff3e00"/><path d="M 116.87208278057649 68.11269422407906 A 78 78 0 0 1 124.98559783531923 67.16134783456972 L 126.78563963802515 95.10342809908315 A 50 50 0 0 0 121.5846684490875 95.71326552825582 Z" fill="#e34c26"/><path d="M 124.98559783531923 67.16134783456972 A 78 78 0 0 1 129.44358271021238 67.00198464191782 L 129.64332225013612 95.00127220635757 A 50 50 0 0 0 126.78563963802515 95.10342809908315 Z" fill="#A97BFF"/><path d="M 129.44358271021238 67.00198464191782 A 78 78 0 0 1 130.00000000000006 67 L 130.00000000000003 95 A 50 50 0 0 0 129.64332225013612 95.00127220635757 Z" fill="#89e051"/>
  
    <rect x="290" y="69" width="12" height="12" rx="3" fill="#dea584"/>
    <text x="312" y="80" class="lang-name">Rust</text>
    <text x="599" y="80" class="lang-pct" text-anchor="end">35.58%</text>
    <rect x="290" y="99" width="12" height="12" rx="3" fill="#3178c6"/>
    <text x="312" y="110" class="lang-name">TypeScript</text>
    <text x="599" y="110" class="lang-pct" text-anchor="end">29.26%</text>
    <rect x="290" y="129" width="12" height="12" rx="3" fill="#663399"/>
    <text x="312" y="140" class="lang-name">CSS</text>
    <text x="599" y="140" class="lang-pct" text-anchor="end">10.37%</text>
    <rect x="290" y="159" width="12" height="12" rx="3" fill="#f1e05a"/>
    <text x="312" y="170" class="lang-name">JavaScript</text>
    <text x="599" y="170" class="lang-pct" text-anchor="end">7.56%</text>
    <rect x="290" y="189" width="12" height="12" rx="3" fill="#178600"/>
    <text x="312" y="200" class="lang-name">C#</text>
    <text x="599" y="200" class="lang-pct" text-anchor="end">5.22%</text>
    <rect x="629" y="69" width="12" height="12" rx="3" fill="#3572A5"/>
    <text x="651" y="80" class="lang-name">Python</text>
    <text x="938" y="80" class="lang-pct" text-anchor="end">5.20%</text>
    <rect x="629" y="99" width="12" height="12" rx="3" fill="#ff3e00"/>
    <text x="651" y="110" class="lang-name">Svelte</text>
    <text x="938" y="110" class="lang-pct" text-anchor="end">4.12%</text>
    <rect x="629" y="129" width="12" height="12" rx="3" fill="#e34c26"/>
    <text x="651" y="140" class="lang-name">HTML</text>
    <text x="938" y="140" class="lang-pct" text-anchor="end">1.67%</text>
    <rect x="629" y="159" width="12" height="12" rx="3" fill="#A97BFF"/>
    <text x="651" y="170" class="lang-name">Kotlin</text>
    <text x="938" y="170" class="lang-pct" text-anchor="end">0.91%</text>
    <rect x="629" y="189" width="12" height="12" rx="3" fill="#89e051"/>
    <text x="651" y="200" class="lang-name">Shell</text>
    <text x="938" y="200" class="lang-pct" text-anchor="end">0.11%</text>
</svg>