<svg xmlns="http://www.w3.org/2000/svg" width="968" height="250" viewBox="0 0 968 250" fill="none" role="img">
  <rect width="968" height="250" fill="#0a192f" rx="6"/>
  <style>
    .title { font: 700 15px "Segoe UI", Helvetica, sans-serif; fill: #64ffda; letter-spacing: 0.5px; }
    .lang-name { font: 600 13px "Segoe UI", Helvetica, sans-serif; fill: #ccd6f6; }
    .lang-pct { font: 400 13px "Segoe UI", Helvetica, sans-serif; fill: #8892b0; }
  </style>
  <text x="30" y="30" class="title">Most Used Languages</text>
  <path d="M 130 67 A 78 78 0 1 1 62.34490984854827 106.182622749612 L 86.63135246701813 120.1170658651359 A 50 50 0 1 0 130 95 Z" fill="#3178c6"/><path d="M 62.34490984854827 106.182622749612 A 78 78 0 0 1 76.91361112567951 87.85251259867657 L 95.97026354210224 108.3669952555619 A 50 50 0 0 0 86.63135246701813 120.1170658651359 Z" fill="#dea584"/><path d="M 76.91361112567951 87.85251259867657 A 78 78 0 0 1 92.7964929205308 76.4441901733494 L 106.15159802598127 101.05396805983935 A 50 50 0 0 0 95.97026354210224 108.3669952555619 Z" fill="#00B4AB"/><path d="M 92.7964929205308 76.4441901733494 A 78 78 0 0 1 105.7664029783414 70.86004602515686 L 114.46564293483422 97.47438847766466 A 50 50 0 0 0 106.15159802598127 101.05396805983935 Z" fill="#178600"/><path d="M 105.7664029783414 70.86004602515686 A 78 78 0 0 1 117.93878325971774 67.93816086580898 L 122.26845080751137 95.60138517039037 A 50 50 0 0 0 114.46564293483422 97.47438847766466 Z" fill="#f1e05a"/><path d="M 117.93878325971774 67.93816086580898 A 78 78 0 0 1 122.91745292524232 67.32221986350382 L 125.45990572130917 95.20655119455373 A 50 50 0 0 0 122.26845080751137 95.60138517039037 Z" fill="#663399"/><path d="M 122.91745292524232 67.32221986350382 A 78 78 0 0 1 125.19755092213857 67.1479834374565 L 126.92150700137088 95.09486117785673 A 50 50 0 0 0 125.45990572130917 95.20655119455373 Z" fill="#3572A5"/><path d="M 125.19755092213857 67.1479834374565 A 78 78 0 0 1 126.91894854727727 67.06087553772704 L 128.02496701748544 95.03902278059425 A 50 50 0 0 0 126.92150700137088 95.09486117785673 Z" fill="#e34c26"/><path d="M 126.91894854727727 67.06087553772704 A 78 78 0 0 1 128.332327858458 67.01782979662387 L 128.93097939644744 95.01142935681017 A 50 50 0 0 0 128.02496701748544 95.03902278059425 Z" fill="#ff3e00"/><path d="M 128.332327858458 67.01782979662387 A 78 78 0 0 1 129.10932739549574 67.0050854073704 L 129.42905602275368 95.0032598765195 A 50 50 0 0 0 128.93097939644744 95.01142935681017 Z" fill="#89e051"/>
  
    <rect x="290" y="69" width="12" height="12" rx="3" fill="#3178c6"/>
    <text x="312" y="80" class="lang-name">TypeScript</text>
    <text x="599" y="80" class="lang-pct" text-anchor="end">83.29%</text>
    <rect x="290" y="99" width="12" height="12" rx="3" fill="#dea584"/>
    <text x="312" y="110" class="lang-name">Rust</text>
    <text x="599" y="110" class="lang-pct" text-anchor="end">4.80%</text>
    <rect x="290" y="129" width="12" height="12" rx="3" fill="#00B4AB"/>
    <text x="312" y="140" class="lang-name">Dart</text>
    <text x="599" y="140" class="lang-pct" text-anchor="end">4.00%</text>
    <rect x="290" y="159" width="12" height="12" rx="3" fill="#178600"/>
    <text x="312" y="170" class="lang-name">C#</text>
    <text x="599" y="170" class="lang-pct" text-anchor="end">2.89%</text>
    <rect x="290" y="189" width="12" height="12" rx="3" fill="#f1e05a"/>
    <text x="312" y="200" class="lang-name">JavaScript</text>
    <text x="599" y="200" class="lang-pct" text-anchor="end">2.56%</text>
    <rect x="629" y="69" width="12" height="12" rx="3" fill="#663399"/>
    <text x="651" y="80" class="lang-name">CSS</text>
    <text x="938" y="80" class="lang-pct" text-anchor="end">1.02%</text>
    <rect x="629" y="99" width="12" height="12" rx="3" fill="#3572A5"/>
    <text x="651" y="110" class="lang-name">Python</text>
    <text x="938" y="110" class="lang-pct" text-anchor="end">0.47%</text>
    <rect x="629" y="129" width="12" height="12" rx="3" fill="#e34c26"/>
    <text x="651" y="140" class="lang-name">HTML</text>
    <text x="938" y="140" class="lang-pct" text-anchor="end">0.35%</text>
    <rect x="629" y="159" width="12" height="12" rx="3" fill="#ff3e00"/>
    <text x="651" y="170" class="lang-name">Svelte</text>
    <text x="938" y="170" class="lang-pct" text-anchor="end">0.29%</text>
    <rect x="629" y="189" width="12" height="12" rx="3" fill="#89e051"/>
    <text x="651" y="200" class="lang-name">Shell</text>
    <text x="938" y="200" class="lang-pct" text-anchor="end">0.16%</text>
</svg>