<svg xmlns="http://www.w3.org/2000/svg" width="968" height="250" viewBox="0 0 968 250" fill="none" role="img">
  <rect width="968" height="250" fill="#0a192f" rx="6"/>
  <style>
    .title { font: 700 15px "Segoe UI", Helvetica, sans-serif; fill: #64ffda; letter-spacing: 0.5px; }
    .lang-name { font: 600 13px "Segoe UI", Helvetica, sans-serif; fill: #ccd6f6; }
    .lang-pct { font: 400 13px "Segoe UI", Helvetica, sans-serif; fill: #8892b0; }
  </style>
  <text x="30" y="30" class="title">Most Used Languages</text>
  <path d="M 130 67 A 78 78 0 0 1 165.87916041984732 214.25811033782873 L 152.99946180759443 189.39622457553125 A 50 50 0 0 0 130 95 Z" fill="#dea584"/><path d="M 165.87916041984732 214.25811033782873 A 78 78 0 0 1 56.19915510060852 170.2474809067353 L 82.69176609013367 161.18428263252264 A 50 50 0 0 0 152.99946180759443 189.39622457553125 Z" fill="#3178c6"/><path d="M 56.19915510060852 170.2474809067353 A 78 78 0 0 1 54.60409783444162 125.01355617821046 L 81.66929348361643 132.1881770373144 A 50 50 0 0 0 82.69176609013367 161.18428263252264 Z" fill="#663399"/><path d="M 54.60409783444162 125.01355617821046 A 78 78 0 0 1 69.29962310266575 96.01567348098405 L 91.08950198888829 113.59979069293848 A 50 50 0 0 0 81.66929348361643 132.1881770373144 Z" fill="#f1e05a"/><path d="M 69.29962310266575 96.01567348098405 A 78 78 0 0 1 84.52084697787599 81.63086997291009 L 100.84669678068974 104.37876280314748 A 50 50 0 0 0 91.08950198888829 113.59979069293848 Z" fill="#178600"/><path d="M 84.52084697787599 81.63086997291009 A 78 78 0 0 1 102.93950291271803 71.8444841629204 L 112.65352750815258 98.10543856597462 A 50 50 0 0 0 100.84669678068974 104.37876280314748 Z" fill="#3572A5"/><path d="M 102.93950291271803 71.8444841629204 A 78 78 0 0 1 118.99347721112657 67.78046583863635 L 122.94453667379908 95.50029861451048 A 50 50 0 0 0 112.65352750815258 98.10543856597462 Z" fill="#ff3e00"/><path d="M 118.99347721112657 67.78046583863635 A 78 78 0 0 1 125.87969696718177 67.10890228711789 L 127.3587801071678 95.0698091584089 A 50 50 0 0 0 122.94453667379908 95.50029861451048 Z" fill="#e34c26"/><path d="M 125.87969696718177 67.10890228711789 A 78 78 0 0 1 129.54289666044352 67.00133939267312 L 129.70698503874584 95.00085858504687 A 50 50 0 0 0 127.3587801071678 95.0698091584089 Z" fill="#A97BFF"/><path d="M 129.54289666044352 67.00133939267312 A 78 78 0 0 1 129.99999999999997 67 L 130 95 A 50 50 0 0 0 129.70698503874584 95.00085858504687 Z" fill="#89e051"/>
  
    <rect x="290" y="69" width="12" height="12" rx="3" fill="#dea584"/>
    <text x="312" y="80" class="lang-name">Rust</text>
    <text x="599" y="80" class="lang-pct" text-anchor="end">42.39%</text>
    <rect x="290" y="99" width="12" height="12" rx="3" fill="#3178c6"/>
    <text x="312" y="110" class="lang-name">TypeScript</text>
    <text x="599" y="110" class="lang-pct" text-anchor="end">27.36%</text>
    <rect x="290" y="129" width="12" height="12" rx="3" fill="#663399"/>
    <text x="312" y="140" class="lang-name">CSS</text>
    <text x="599" y="140" class="lang-pct" text-anchor="end">9.37%</text>
    <rect x="290" y="159" width="12" height="12" rx="3" fill="#f1e05a"/>
    <text x="312" y="170" class="lang-name">JavaScript</text>
    <text x="599" y="170" class="lang-pct" text-anchor="end">6.68%</text>
    <rect x="290" y="189" width="12" height="12" rx="3" fill="#178600"/>
    <text x="312" y="200" class="lang-name">C#</text>
    <text x="599" y="200" class="lang-pct" text-anchor="end">4.29%</text>
    <rect x="629" y="69" width="12" height="12" rx="3" fill="#3572A5"/>
    <text x="651" y="80" class="lang-name">Python</text>
    <text x="938" y="80" class="lang-pct" text-anchor="end">4.27%</text>
    <rect x="629" y="99" width="12" height="12" rx="3" fill="#ff3e00"/>
    <text x="651" y="110" class="lang-name">Svelte</text>
    <text x="938" y="110" class="lang-pct" text-anchor="end">3.39%</text>
    <rect x="629" y="129" width="12" height="12" rx="3" fill="#e34c26"/>
    <text x="651" y="140" class="lang-name">HTML</text>
    <text x="938" y="140" class="lang-pct" text-anchor="end">1.41%</text>
    <rect x="629" y="159" width="12" height="12" rx="3" fill="#A97BFF"/>
    <text x="651" y="170" class="lang-name">Kotlin</text>
    <text x="938" y="170" class="lang-pct" text-anchor="end">0.75%</text>
    <rect x="629" y="189" width="12" height="12" rx="3" fill="#89e051"/>
    <text x="651" y="200" class="lang-name">Shell</text>
    <text x="938" y="200" class="lang-pct" text-anchor="end">0.09%</text>
</svg>