<svg xmlns="http://www.w3.org/2000/svg" width="968" height="250" viewBox="0 0 968 250" fill="none" role="img">
  <rect width="968" height="250" fill="#0a192f" rx="6"/>
  <style>
    .title { font: 700 15px "Segoe UI", Helvetica, sans-serif; fill: #64ffda; letter-spacing: 0.5px; }
    .lang-name { font: 600 13px "Segoe UI", Helvetica, sans-serif; fill: #ccd6f6; }
    .lang-pct { font: 400 13px "Segoe UI", Helvetica, sans-serif; fill: #8892b0; }
  </style>
  <text x="30" y="30" class="title">Most Used Languages</text>
  <path d="M 130 67 A 78 78 0 1 1 61.42788662952593 182.1734484263547 L 86.04351707020894 168.8291336066376 A 50 50 0 1 0 130 95 Z" fill="#3178c6"/><path d="M 61.42788662952593 182.1734484263547 A 78 78 0 0 1 54.81006305012005 124.25214754551504 L 81.80132246802567 131.70009458045837 A 50 50 0 0 0 86.04351707020894 168.8291336066376 Z" fill="#178600"/><path d="M 54.81006305012005 124.25214754551504 A 78 78 0 0 1 87.0400474449637 79.89667845286978 L 102.46156887497673 103.26710157235242 A 50 50 0 0 0 81.80132246802567 131.70009458045837 Z" fill="#dea584"/><path d="M 87.0400474449637 79.89667845286978 A 78 78 0 0 1 102.78734833416985 71.90094672764775 L 112.55599252190375 98.14163251772291 A 50 50 0 0 0 102.46156887497673 103.26710157235242 Z" fill="#663399"/><path d="M 102.78734833416985 71.90094672764775 A 78 78 0 0 1 116.69654468851527 68.14287230988053 L 121.47214403109953 95.73261045505163 A 50 50 0 0 0 112.55599252190375 98.14163251772291 Z" fill="#f1e05a"/><path d="M 116.69654468851527 68.14287230988053 A 78 78 0 0 1 123.03239266007546 67.31182555911981 L 125.53358503850991 95.19988817892296 A 50 50 0 0 0 121.47214403109953 95.73261045505163 Z" fill="#e34c26"/><path d="M 123.03239266007546 67.31182555911981 A 78 78 0 0 1 126.23794557962584 67.09077752577592 L 127.58842665360632 95.05819072165123 A 50 50 0 0 0 125.53358503850991 95.19988817892296 Z" fill="#89e051"/><path d="M 126.23794557962584 67.09077752577592 A 78 78 0 0 1 128.54878269566333 67.01350137148358 L 129.0697324972201 95.00865472530998 A 50 50 0 0 0 127.58842665360632 95.05819072165123 Z" fill="#336790"/><path d="M 128.54878269566333 67.01350137148358 A 78 78 0 0 1 129.8685662925037 67.00011073610082 L 129.9157476233998 95.00007098468001 A 50 50 0 0 0 129.0697324972201 95.00865472530998 Z" fill="#A97BFF"/><path d="M 129.8685662925037 67.00011073610082 A 78 78 0 0 1 130.00000000000006 67 L 130.00000000000003 95 A 50 50 0 0 0 129.9157476233998 95.00007098468001 Z" fill="#012456"/>
  
    <rect x="290" y="69" width="12" height="12" rx="3" fill="#3178c6"/>
    <text x="312" y="80" class="lang-name">TypeScript</text>
    <text x="599" y="80" class="lang-pct" text-anchor="end">67.09%</text>
    <rect x="290" y="99" width="12" height="12" rx="3" fill="#178600"/>
    <text x="312" y="110" class="lang-name">C#</text>
    <text x="599" y="110" class="lang-pct" text-anchor="end">12.19%</text>
    <rect x="290" y="129" width="12" height="12" rx="3" fill="#dea584"/>
    <text x="312" y="140" class="lang-name">Rust</text>
    <text x="599" y="140" class="lang-pct" text-anchor="end">11.43%</text>
    <rect x="290" y="159" width="12" height="12" rx="3" fill="#663399"/>
    <text x="312" y="170" class="lang-name">CSS</text>
    <text x="599" y="170" class="lang-pct" text-anchor="end">3.61%</text>
    <rect x="290" y="189" width="12" height="12" rx="3" fill="#f1e05a"/>
    <text x="312" y="200" class="lang-name">JavaScript</text>
    <text x="599" y="200" class="lang-pct" text-anchor="end">2.94%</text>
    <rect x="629" y="69" width="12" height="12" rx="3" fill="#e34c26"/>
    <text x="651" y="80" class="lang-name">HTML</text>
    <text x="938" y="80" class="lang-pct" text-anchor="end">1.30%</text>
    <rect x="629" y="99" width="12" height="12" rx="3" fill="#89e051"/>
    <text x="651" y="110" class="lang-name">Shell</text>
    <text x="938" y="110" class="lang-pct" text-anchor="end">0.66%</text>
    <rect x="629" y="129" width="12" height="12" rx="3" fill="#336790"/>
    <text x="651" y="140" class="lang-name">PLpgSQL</text>
    <text x="938" y="140" class="lang-pct" text-anchor="end">0.47%</text>
    <rect x="629" y="159" width="12" height="12" rx="3" fill="#A97BFF"/>
    <text x="651" y="170" class="lang-name">Kotlin</text>
    <text x="938" y="170" class="lang-pct" text-anchor="end">0.27%</text>
    <rect x="629" y="189" width="12" height="12" rx="3" fill="#012456"/>
    <text x="651" y="200" class="lang-name">PowerShell</text>
    <text x="938" y="200" class="lang-pct" text-anchor="end">0.03%</text>
</svg>