<svg xmlns="http://www.w3.org/2000/svg" width="968" height="250" viewBox="0 0 968 250" fill="none" role="img">
  <rect width="968" height="250" fill="#0a192f" rx="6"/>
  <style>
    .title { font: 700 15px "Segoe UI", Helvetica, sans-serif; fill: #64ffda; letter-spacing: 0.5px; }
    .lang-name { font: 600 13px "Segoe UI", Helvetica, sans-serif; fill: #ccd6f6; }
    .lang-pct { font: 400 13px "Segoe UI", Helvetica, sans-serif; fill: #8892b0; }
  </style>
  <text x="30" y="30" class="title">Most Used Languages</text>
  <path d="M 130 67 A 78 78 0 0 1 197.5419673749352 184.01387757097712 L 173.29613293265078 170.00889587883148 A 50 50 0 0 0 130 95 Z" fill="#3178c6"/><path d="M 197.5419673749352 184.01387757097712 A 78 78 0 0 1 105.93782898252769 219.19576757420813 L 114.57553139905622 192.56138947064625 A 50 50 0 0 0 173.29613293265078 170.00889587883148 Z" fill="#dea584"/><path d="M 105.93782898252769 219.19576757420813 A 78 78 0 0 1 61.92662468631572 183.07907001756058 L 86.36322095276648 169.40966026766705 A 50 50 0 0 0 114.57553139905622 192.56138947064625 Z" fill="#663399"/><path d="M 61.92662468631572 183.07907001756058 A 78 78 0 0 1 53.41114739546704 130.23017749865878 L 80.90458166376092 135.53216506324281 A 50 50 0 0 0 86.36322095276648 169.40966026766705 Z" fill="#f1e05a"/><path d="M 53.41114739546704 130.23017749865878 A 78 78 0 0 1 72.20712385840768 92.61695439092368 L 92.95328452462032 111.42112460956646 A 50 50 0 0 0 80.90458166376092 135.53216506324281 Z" fill="#3572A5"/><path d="M 72.20712385840768 92.61695439092368 A 78 78 0 0 1 99.51338380805512 73.20469212291763 L 110.45729731285584 98.97736674546002 A 50 50 0 0 0 92.95328452462032 111.42112460956646 Z" fill="#ff3e00"/><path d="M 99.51338380805512 73.20469212291763 A 78 78 0 0 1 110.75403225656689 69.41168922631799 L 117.66284119010697 96.54595463225512 A 50 50 0 0 0 110.45729731285584 98.97736674546002 Z" fill="#178600"/><path d="M 110.75403225656689 69.41168922631799 A 78 78 0 0 1 121.62687404370381 67.45072043068356 L 124.6326115664768 95.28892335300228 A 50 50 0 0 0 117.66284119010697 96.54595463225512 Z" fill="#e34c26"/><path d="M 121.62687404370381 67.45072043068356 A 78 78 0 0 1 129.06974820827298 67.0055474305769 L 129.40368474889294 95.0035560452416 A 50 50 0 0 0 124.6326115664768 95.28892335300228 Z" fill="#A97BFF"/><path d="M 129.06974820827298 67.0055474305769 A 78 78 0 0 1 129.99999999999991 67 L 129.99999999999994 95 A 50 50 0 0 0 129.40368474889294 95.0035560452416 Z" fill="#89e051"/>
  
    <rect x="290" y="69" width="12" height="12" rx="3" fill="#3178c6"/>
    <text x="312" y="80" class="lang-name">TypeScript</text>
    <text x="599" y="80" class="lang-pct" text-anchor="end">33.34%</text>
    <rect x="290" y="99" width="12" height="12" rx="3" fill="#dea584"/>
    <text x="312" y="110" class="lang-name">Rust</text>
    <text x="599" y="110" class="lang-pct" text-anchor="end">21.65%</text>
    <rect x="290" y="129" width="12" height="12" rx="3" fill="#663399"/>
    <text x="312" y="140" class="lang-name">CSS</text>
    <text x="599" y="140" class="lang-pct" text-anchor="end">11.89%</text>
    <rect x="290" y="159" width="12" height="12" rx="3" fill="#f1e05a"/>
    <text x="312" y="170" class="lang-name">JavaScript</text>
    <text x="599" y="170" class="lang-pct" text-anchor="end">11.15%</text>
    <rect x="290" y="189" width="12" height="12" rx="3" fill="#3572A5"/>
    <text x="312" y="200" class="lang-name">Python</text>
    <text x="599" y="200" class="lang-pct" text-anchor="end">8.69%</text>
    <rect x="629" y="69" width="12" height="12" rx="3" fill="#ff3e00"/>
    <text x="651" y="80" class="lang-name">Svelte</text>
    <text x="938" y="80" class="lang-pct" text-anchor="end">6.89%</text>
    <rect x="629" y="99" width="12" height="12" rx="3" fill="#178600"/>
    <text x="651" y="110" class="lang-name">C#</text>
    <text x="938" y="110" class="lang-pct" text-anchor="end">2.42%</text>
    <rect x="629" y="129" width="12" height="12" rx="3" fill="#e34c26"/>
    <text x="651" y="140" class="lang-name">HTML</text>
    <text x="938" y="140" class="lang-pct" text-anchor="end">2.26%</text>
    <rect x="629" y="159" width="12" height="12" rx="3" fill="#A97BFF"/>
    <text x="651" y="170" class="lang-name">Kotlin</text>
    <text x="938" y="170" class="lang-pct" text-anchor="end">1.52%</text>
    <rect x="629" y="189" width="12" height="12" rx="3" fill="#89e051"/>
    <text x="651" y="200" class="lang-name">Shell</text>
    <text x="938" y="200" class="lang-pct" text-anchor="end">0.19%</text>
</svg>