<svg xmlns="http://www.w3.org/2000/svg" width="968" height="250" viewBox="0 0 968 250" fill="none" role="img">
  <rect width="968" height="250" fill="#0a192f" rx="6"/>
  <style>
    .title { font: 700 15px "Segoe UI", Helvetica, sans-serif; fill: #64ffda; letter-spacing: 0.5px; }
    .lang-name { font: 600 13px "Segoe UI", Helvetica, sans-serif; fill: #ccd6f6; }
    .lang-pct { font: 400 13px "Segoe UI", Helvetica, sans-serif; fill: #8892b0; }
  </style>
  <text x="30" y="30" class="title">Most Used Languages</text>
  <path d="M 130 67 A 78 78 0 0 1 165.21433384347006 214.59849633404906 L 152.5732909253013 189.6144207269545 A 50 50 0 0 0 130 95 Z" fill="#dea584"/><path d="M 165.21433384347006 214.59849633404906 A 78 78 0 0 1 64.00346754643162 186.5747243419015 L 87.69453047848181 171.65046432173173 A 50 50 0 0 0 152.5732909253013 189.6144207269545 Z" fill="#3178c6"/><path d="M 64.00346754643162 186.5747243419015 A 78 78 0 0 1 53.163716748405974 131.57667790445262 L 80.74597227461922 136.39530634900808 A 50 50 0 0 0 87.69453047848181 171.65046432173173 Z" fill="#178600"/><path d="M 53.163716748405974 131.57667790445262 A 78 78 0 0 1 68.79187151046017 96.6516287057363 L 90.76402019901293 114.00745429854891 A 50 50 0 0 0 80.74597227461922 136.39530634900808 Z" fill="#663399"/><path d="M 68.79187151046017 96.6516287057363 A 78 78 0 0 1 89.05587026894302 78.61040563035216 L 103.7537629929122 102.44256771176421 A 50 50 0 0 0 90.76402019901293 114.00745429854891 Z" fill="#f1e05a"/><path d="M 89.05587026894302 78.61040563035216 A 78 78 0 0 1 104.77670811459629 71.19088439451582 L 113.83122315038223 97.68646435545887 A 50 50 0 0 0 103.7537629929122 102.44256771176421 Z" fill="#3572A5"/><path d="M 104.77670811459629 71.19088439451582 A 78 78 0 0 1 118.17664820894112 67.9013077126151 L 122.42092833906482 95.57776135424044 A 50 50 0 0 0 113.83122315038223 97.68646435545887 Z" fill="#ff3e00"/><path d="M 118.17664820894112 67.9013077126151 A 78 78 0 0 1 123.90038115544387 67.23886156986167 L 126.08998792015632 95.15311639093697 A 50 50 0 0 0 122.42092833906482 95.57776135424044 Z" fill="#e34c26"/><path d="M 123.90038115544387 67.23886156986167 A 78 78 0 0 1 126.94687022156094 67.05977676093038 L 128.04286552664163 95.03831843649382 A 50 50 0 0 0 126.08998792015632 95.15311639093697 Z" fill="#A97BFF"/><path d="M 126.94687022156094 67.05977676093038 A 78 78 0 0 1 129.61936925497324 67.00092872196528 L 129.75600593267515 95.00059533459313 A 50 50 0 0 0 128.04286552664163 95.03831843649382 Z" fill="#336790"/>
  
    <rect x="290" y="69" width="12" height="12" rx="3" fill="#dea584"/>
    <text x="312" y="80" class="lang-name">Rust</text>
    <text x="599" y="80" class="lang-pct" text-anchor="end">42.55%</text>
    <rect x="290" y="99" width="12" height="12" rx="3" fill="#3178c6"/>
    <text x="312" y="110" class="lang-name">TypeScript</text>
    <text x="599" y="110" class="lang-pct" text-anchor="end">23.51%</text>
    <rect x="290" y="129" width="12" height="12" rx="3" fill="#178600"/>
    <text x="312" y="140" class="lang-name">C#</text>
    <text x="599" y="140" class="lang-pct" text-anchor="end">11.70%</text>
    <rect x="290" y="159" width="12" height="12" rx="3" fill="#663399"/>
    <text x="312" y="170" class="lang-name">CSS</text>
    <text x="599" y="170" class="lang-pct" text-anchor="end">7.89%</text>
    <rect x="290" y="189" width="12" height="12" rx="3" fill="#f1e05a"/>
    <text x="312" y="200" class="lang-name">JavaScript</text>
    <text x="599" y="200" class="lang-pct" text-anchor="end">5.56%</text>
    <rect x="629" y="69" width="12" height="12" rx="3" fill="#3572A5"/>
    <text x="651" y="80" class="lang-name">Python</text>
    <text x="938" y="80" class="lang-pct" text-anchor="end">3.55%</text>
    <rect x="629" y="99" width="12" height="12" rx="3" fill="#ff3e00"/>
    <text x="651" y="110" class="lang-name">Svelte</text>
    <text x="938" y="110" class="lang-pct" text-anchor="end">2.82%</text>
    <rect x="629" y="129" width="12" height="12" rx="3" fill="#e34c26"/>
    <text x="651" y="140" class="lang-name">HTML</text>
    <text x="938" y="140" class="lang-pct" text-anchor="end">1.18%</text>
    <rect x="629" y="159" width="12" height="12" rx="3" fill="#A97BFF"/>
    <text x="651" y="170" class="lang-name">Kotlin</text>
    <text x="938" y="170" class="lang-pct" text-anchor="end">0.62%</text>
    <rect x="629" y="189" width="12" height="12" rx="3" fill="#336790"/>
    <text x="651" y="200" class="lang-name">PLpgSQL</text>
    <text x="938" y="200" class="lang-pct" text-anchor="end">0.55%</text>
</svg>