<svg xmlns="http://www.w3.org/2000/svg" width="968" height="250" viewBox="0 0 968 250" fill="none" role="img">
  <rect width="968" height="250" fill="#0a192f" rx="6"/>
  <style>
    .title { font: 700 15px "Segoe UI", Helvetica, sans-serif; fill: #64ffda; letter-spacing: 0.5px; }
    .lang-name { font: 600 13px "Segoe UI", Helvetica, sans-serif; fill: #ccd6f6; }
    .lang-pct { font: 400 13px "Segoe UI", Helvetica, sans-serif; fill: #8892b0; }
  </style>
  <text x="30" y="30" class="title">Most Used Languages</text>
  <path d="M 130 67 A 78 78 0 0 1 179.44772758835532 205.3234799754441 L 161.69726127458674 183.66889742015647 A 50 50 0 0 0 130 95 Z" fill="#dea584"/><path d="M 179.44772758835532 205.3234799754441 A 78 78 0 0 1 60.260307816011135 179.9338708717268 L 85.29506911282766 167.39350696905566 A 50 50 0 0 0 161.69726127458674 183.66889742015647 Z" fill="#3178c6"/><path d="M 60.260307816011135 179.9338708717268 A 78 78 0 0 1 53.011979652162836 132.47623367668453 L 80.64870490523259 136.97194466454138 A 50 50 0 0 0 85.29506911282766 167.39350696905566 Z" fill="#663399"/><path d="M 53.011979652162836 132.47623367668453 A 78 78 0 0 1 65.20050123906911 101.58312585719563 L 88.46185976863404 117.16867042127924 A 50 50 0 0 0 80.64870490523259 136.97194466454138 Z" fill="#f1e05a"/><path d="M 65.20050123906911 101.58312585719563 A 78 78 0 0 1 80.6884804455889 84.56512563730334 L 98.39005156768519 106.25969592134828 A 50 50 0 0 0 88.46185976863404 117.16867042127924 Z" fill="#178600"/><path d="M 80.6884804455889 84.56512563730334 A 78 78 0 0 1 100.37991745993672 72.84287484717923 L 111.01276760252354 98.74543259434566 A 50 50 0 0 0 98.39005156768519 106.25969592134828 Z" fill="#3572A5"/><path d="M 100.37991745993672 72.84287484717923 A 78 78 0 0 1 117.907625826465 67.94304387761464 L 122.24847809388783 95.60451530616322 A 50 50 0 0 0 111.01276760252354 98.74543259434566 Z" fill="#ff3e00"/><path d="M 117.907625826465 67.94304387761464 A 78 78 0 0 1 125.47048509157516 67.13162712182591 L 127.09646480229176 95.08437636014482 A 50 50 0 0 0 122.24847809388783 95.60451530616322 Z" fill="#e34c26"/><path d="M 125.47048509157516 67.13162712182591 A 78 78 0 0 1 129.49745076343822 67.00161896382188 L 129.67785305348605 95.00103779732171 A 50 50 0 0 0 127.09646480229176 95.08437636014482 Z" fill="#A97BFF"/><path d="M 129.49745076343822 67.00161896382188 A 78 78 0 0 1 130.00000000000006 67 L 130.00000000000003 95 A 50 50 0 0 0 129.67785305348605 95.00103779732171 Z" fill="#89e051"/>
  
    <rect x="290" y="69" width="12" height="12" rx="3" fill="#dea584"/>
    <text x="312" y="80" class="lang-name">Rust</text>
    <text x="599" y="80" class="lang-pct" text-anchor="end">39.07%</text>
    <rect x="290" y="99" width="12" height="12" rx="3" fill="#3178c6"/>
    <text x="312" y="110" class="lang-name">TypeScript</text>
    <text x="599" y="110" class="lang-pct" text-anchor="end">28.54%</text>
    <rect x="290" y="129" width="12" height="12" rx="3" fill="#663399"/>
    <text x="312" y="140" class="lang-name">CSS</text>
    <text x="599" y="140" class="lang-pct" text-anchor="end">9.96%</text>
    <rect x="290" y="159" width="12" height="12" rx="3" fill="#f1e05a"/>
    <text x="312" y="170" class="lang-name">JavaScript</text>
    <text x="599" y="170" class="lang-pct" text-anchor="end">6.83%</text>
    <rect x="290" y="189" width="12" height="12" rx="3" fill="#178600"/>
    <text x="312" y="200" class="lang-name">C#</text>
    <text x="599" y="200" class="lang-pct" text-anchor="end">4.71%</text>
    <rect x="629" y="69" width="12" height="12" rx="3" fill="#3572A5"/>
    <text x="651" y="80" class="lang-name">Python</text>
    <text x="938" y="80" class="lang-pct" text-anchor="end">4.69%</text>
    <rect x="629" y="99" width="12" height="12" rx="3" fill="#ff3e00"/>
    <text x="651" y="110" class="lang-name">Svelte</text>
    <text x="938" y="110" class="lang-pct" text-anchor="end">3.72%</text>
    <rect x="629" y="129" width="12" height="12" rx="3" fill="#e34c26"/>
    <text x="651" y="140" class="lang-name">HTML</text>
    <text x="938" y="140" class="lang-pct" text-anchor="end">1.55%</text>
    <rect x="629" y="159" width="12" height="12" rx="3" fill="#A97BFF"/>
    <text x="651" y="170" class="lang-name">Kotlin</text>
    <text x="938" y="170" class="lang-pct" text-anchor="end">0.82%</text>
    <rect x="629" y="189" width="12" height="12" rx="3" fill="#89e051"/>
    <text x="651" y="200" class="lang-name">Shell</text>
    <text x="938" y="200" class="lang-pct" text-anchor="end">0.10%</text>
</svg>