<svg xmlns="http://www.w3.org/2000/svg" width="968" height="250" viewBox="0 0 968 250" fill="none" role="img">
  <rect width="968" height="250" fill="#0a192f" rx="6"/>
  <style>
    .title { font: 700 15px "Segoe UI", Helvetica, sans-serif; fill: #64ffda; letter-spacing: 0.5px; }
    .lang-name { font: 600 13px "Segoe UI", Helvetica, sans-serif; fill: #ccd6f6; }
    .lang-pct { font: 400 13px "Segoe UI", Helvetica, sans-serif; fill: #8892b0; }
  </style>
  <text x="30" y="30" class="title">Most Used Languages</text>
  <path d="M 130 67 A 78 78 0 0 1 186.8067869450901 198.45080875884986 L 166.4146070160834 179.26333894798069 A 50 50 0 0 0 130 95 Z" fill="#dea584"/><path d="M 186.8067869450901 198.45080875884986 A 78 78 0 0 1 64.3838254741147 187.17247491656804 L 87.93834966289404 172.0336377670308 A 50 50 0 0 0 166.4146070160834 179.26333894798069 Z" fill="#3178c6"/><path d="M 64.3838254741147 187.17247491656804 A 78 78 0 0 1 52.18784969523733 139.58989233480315 L 80.12041647130599 141.53198226589947 A 50 50 0 0 0 87.93834966289404 172.0336377670308 Z" fill="#663399"/><path d="M 52.18784969523733 139.58989233480315 A 78 78 0 0 1 62.598822535160636 105.74339194029582 L 86.79411700971835 119.83550765403578 A 50 50 0 0 0 80.12041647130599 141.53198226589947 Z" fill="#f1e05a"/><path d="M 62.598822535160636 105.74339194029582 A 78 78 0 0 1 78.13866497943215 86.73850388220004 L 96.75555447399496 107.65288710397436 A 50 50 0 0 0 86.79411700971835 119.83550765403578 Z" fill="#178600"/><path d="M 78.13866497943215 86.73850388220004 A 78 78 0 0 1 98.72267242021377 73.5456174929295 L 109.95043103859857 99.19590864931378 A 50 50 0 0 0 96.75555447399496 107.65288710397436 Z" fill="#3572A5"/><path d="M 98.72267242021377 73.5456174929295 A 78 78 0 0 1 117.34445841046544 68.03353154083553 L 121.88747334004195 95.6625202184843 A 50 50 0 0 0 109.95043103859857 99.19590864931378 Z" fill="#ff3e00"/><path d="M 117.34445841046544 68.03353154083553 A 78 78 0 0 1 125.16550689001735 67.14996675421692 L 126.90096595513933 95.09613253475445 A 50 50 0 0 0 121.88747334004195 95.6625202184843 Z" fill="#e34c26"/><path d="M 125.16550689001735 67.14996675421692 A 78 78 0 0 1 129.46357190292582 67.00184460580707 L 129.65613583520886 95.00118243961991 A 50 50 0 0 0 126.90096595513933 95.09613253475445 Z" fill="#A97BFF"/><path d="M 129.46357190292582 67.00184460580707 A 78 78 0 0 1 130.00000000000006 67 L 130.00000000000003 95 A 50 50 0 0 0 129.65613583520886 95.00118243961991 Z" fill="#89e051"/>
  
    <rect x="290" y="69" width="12" height="12" rx="3" fill="#dea584"/>
    <text x="312" y="80" class="lang-name">Rust</text>
    <text x="599" y="80" class="lang-pct" text-anchor="end">37.02%</text>
    <rect x="290" y="99" width="12" height="12" rx="3" fill="#3178c6"/>
    <text x="312" y="110" class="lang-name">TypeScript</text>
    <text x="599" y="110" class="lang-pct" text-anchor="end">28.89%</text>
    <rect x="290" y="129" width="12" height="12" rx="3" fill="#663399"/>
    <text x="312" y="140" class="lang-name">CSS</text>
    <text x="599" y="140" class="lang-pct" text-anchor="end">10.20%</text>
    <rect x="290" y="159" width="12" height="12" rx="3" fill="#f1e05a"/>
    <text x="312" y="170" class="lang-name">JavaScript</text>
    <text x="599" y="170" class="lang-pct" text-anchor="end">7.29%</text>
    <rect x="290" y="189" width="12" height="12" rx="3" fill="#178600"/>
    <text x="312" y="200" class="lang-name">C#</text>
    <text x="599" y="200" class="lang-pct" text-anchor="end">5.03%</text>
    <rect x="629" y="69" width="12" height="12" rx="3" fill="#3572A5"/>
    <text x="651" y="80" class="lang-name">Python</text>
    <text x="938" y="80" class="lang-pct" text-anchor="end">5.01%</text>
    <rect x="629" y="99" width="12" height="12" rx="3" fill="#ff3e00"/>
    <text x="651" y="110" class="lang-name">Svelte</text>
    <text x="938" y="110" class="lang-pct" text-anchor="end">3.97%</text>
    <rect x="629" y="129" width="12" height="12" rx="3" fill="#e34c26"/>
    <text x="651" y="140" class="lang-name">HTML</text>
    <text x="938" y="140" class="lang-pct" text-anchor="end">1.61%</text>
    <rect x="629" y="159" width="12" height="12" rx="3" fill="#A97BFF"/>
    <text x="651" y="170" class="lang-name">Kotlin</text>
    <text x="938" y="170" class="lang-pct" text-anchor="end">0.88%</text>
    <rect x="629" y="189" width="12" height="12" rx="3" fill="#89e051"/>
    <text x="651" y="200" class="lang-name">Shell</text>
    <text x="938" y="200" class="lang-pct" text-anchor="end">0.11%</text>
</svg>