<svg xmlns="http://www.w3.org/2000/svg" width="968" height="250" viewBox="0 0 968 250" fill="none" role="img">
  <rect width="968" height="250" fill="#0a192f" rx="6"/>
  <style>
    .title { font: 700 15px "Segoe UI", Helvetica, sans-serif; fill: #64ffda; letter-spacing: 0.5px; }
    .lang-name { font: 600 13px "Segoe UI", Helvetica, sans-serif; fill: #ccd6f6; }
    .lang-pct { font: 400 13px "Segoe UI", Helvetica, sans-serif; fill: #8892b0; }
  </style>
  <text x="30" y="30" class="title">Most Used Languages</text>
  <path d="M 130 67 A 78 78 0 0 1 196.06124864685708 186.47181485320027 L 172.34695426080583 171.58449670076942 A 50 50 0 0 0 130 95 Z" fill="#dea584"/><path d="M 196.06124864685708 186.47181485320027 A 78 78 0 0 1 75.91053048207283 201.19901500266022 L 95.32726312953386 181.0250096170899 A 50 50 0 0 0 172.34695426080583 171.58449670076942 Z" fill="#3178c6"/><path d="M 75.91053048207283 201.19901500266022 A 78 78 0 0 1 53.03388858527693 157.65771281458203 L 80.66274909312624 153.11391847088592 A 50 50 0 0 0 95.32726312953386 181.0250096170899 Z" fill="#663399"/><path d="M 53.03388858527693 157.65771281458203 A 78 78 0 0 1 57.2011550162413 116.9941404518506 L 83.33407372835981 127.04752593067346 A 50 50 0 0 0 80.66274909312624 153.11391847088592 Z" fill="#f1e05a"/><path d="M 57.2011550162413 116.9941404518506 A 78 78 0 0 1 72.04138580237628 92.80039233585171 L 92.84704218101044 111.53871303580237 A 50 50 0 0 0 83.33407372835981 127.04752593067346 Z" fill="#178600"/><path d="M 72.04138580237628 92.80039233585171 A 78 78 0 0 1 94.45100198001104 75.5718447618344 L 107.21218075641733 100.49477228322718 A 50 50 0 0 0 92.84704218101044 111.53871303580237 Z" fill="#3572A5"/><path d="M 94.45100198001104 75.5718447618344 A 78 78 0 0 1 115.71299417333823 68.3196148646283 L 120.84166293162707 95.84590696450533 A 50 50 0 0 0 107.21218075641733 100.49477228322718 Z" fill="#ff3e00"/><path d="M 115.71299417333823 68.3196148646283 A 78 78 0 0 1 124.40392329097038 67.20100305616623 L 126.41277134036562 95.12884811292707 A 50 50 0 0 0 120.84166293162707 95.84590696450533 Z" fill="#e34c26"/><path d="M 124.40392329097038 67.20100305616623 A 78 78 0 0 1 129.37893381220144 67.00247262386856 L 129.60188064884707 95.00158501530035 A 50 50 0 0 0 126.41277134036562 95.12884811292707 Z" fill="#A97BFF"/><path d="M 129.37893381220144 67.00247262386856 A 78 78 0 0 1 129.99999999999997 67 L 130 95 A 50 50 0 0 0 129.60188064884707 95.00158501530035 Z" fill="#89e051"/>
  
    <rect x="290" y="69" width="12" height="12" rx="3" fill="#dea584"/>
    <text x="312" y="80" class="lang-name">Rust</text>
    <text x="599" y="80" class="lang-pct" text-anchor="end">33.92%</text>
    <rect x="290" y="99" width="12" height="12" rx="3" fill="#3178c6"/>
    <text x="312" y="110" class="lang-name">TypeScript</text>
    <text x="599" y="110" class="lang-pct" text-anchor="end">28.27%</text>
    <rect x="290" y="129" width="12" height="12" rx="3" fill="#663399"/>
    <text x="312" y="140" class="lang-name">CSS</text>
    <text x="599" y="140" class="lang-pct" text-anchor="end">10.21%</text>
    <rect x="290" y="159" width="12" height="12" rx="3" fill="#f1e05a"/>
    <text x="312" y="170" class="lang-name">JavaScript</text>
    <text x="599" y="170" class="lang-pct" text-anchor="end">8.44%</text>
    <rect x="290" y="189" width="12" height="12" rx="3" fill="#178600"/>
    <text x="312" y="200" class="lang-name">C#</text>
    <text x="599" y="200" class="lang-pct" text-anchor="end">5.82%</text>
    <rect x="629" y="69" width="12" height="12" rx="3" fill="#3572A5"/>
    <text x="651" y="80" class="lang-name">Python</text>
    <text x="938" y="80" class="lang-pct" text-anchor="end">5.80%</text>
    <rect x="629" y="99" width="12" height="12" rx="3" fill="#ff3e00"/>
    <text x="651" y="110" class="lang-name">Svelte</text>
    <text x="938" y="110" class="lang-pct" text-anchor="end">4.60%</text>
    <rect x="629" y="129" width="12" height="12" rx="3" fill="#e34c26"/>
    <text x="651" y="140" class="lang-name">HTML</text>
    <text x="938" y="140" class="lang-pct" text-anchor="end">1.79%</text>
    <rect x="629" y="159" width="12" height="12" rx="3" fill="#A97BFF"/>
    <text x="651" y="170" class="lang-name">Kotlin</text>
    <text x="938" y="170" class="lang-pct" text-anchor="end">1.02%</text>
    <rect x="629" y="189" width="12" height="12" rx="3" fill="#89e051"/>
    <text x="651" y="200" class="lang-name">Shell</text>
    <text x="938" y="200" class="lang-pct" text-anchor="end">0.13%</text>
</svg>