<svg xmlns="http://www.w3.org/2000/svg" width="968" height="250" viewBox="0 0 968 250" fill="none" role="img">
  <rect width="968" height="250" fill="#0a192f" rx="6"/>
  <style>
    .title { font: 700 15px "Segoe UI", Helvetica, sans-serif; fill: #64ffda; letter-spacing: 0.5px; }
    .lang-name { font: 600 13px "Segoe UI", Helvetica, sans-serif; fill: #ccd6f6; }
    .lang-pct { font: 400 13px "Segoe UI", Helvetica, sans-serif; fill: #8892b0; }
  </style>
  <text x="30" y="30" class="title">Most Used Languages</text>
  <path d="M 130 67 A 78 78 0 0 1 186.41270631135114 198.86656260268745 L 166.16199122522508 179.52984782223552 A 50 50 0 0 0 130 95 Z" fill="#dea584"/><path d="M 186.41270631135114 198.86656260268745 A 78 78 0 0 1 64.16366967924864 186.82795249467654 L 87.79722415336451 171.81279006069008 A 50 50 0 0 0 166.16199122522508 179.52984782223552 Z" fill="#3178c6"/><path d="M 64.16366967924864 186.82795249467654 A 78 78 0 0 1 52.208251696021605 139.30404566288726 L 80.13349467693692 141.34874721979952 A 50 50 0 0 0 87.79722415336451 171.81279006069008 Z" fill="#663399"/><path d="M 52.208251696021605 139.30404566288726 A 78 78 0 0 1 62.69927561397789 105.5714253730028 L 86.85851000896018 119.72527267500179 A 50 50 0 0 0 80.13349467693692 141.34874721979952 Z" fill="#f1e05a"/><path d="M 62.69927561397789 105.5714253730028 A 78 78 0 0 1 78.2424458458928 86.6462889956032 L 96.82208067044411 107.59377499718154 A 50 50 0 0 0 86.85851000896018 119.72527267500179 Z" fill="#178600"/><path d="M 78.2424458458928 86.6462889956032 A 78 78 0 0 1 98.79483369207338 73.51407414256536 L 109.9966882641496 99.17568855292652 A 50 50 0 0 0 96.82208067044411 107.59377499718154 Z" fill="#3572A5"/><path d="M 98.79483369207338 73.51407414256536 A 78 78 0 0 1 117.37515411084777 68.02849055478283 L 121.90715007105626 95.65928881716849 A 50 50 0 0 0 109.9966882641496 99.17568855292652 Z" fill="#ff3e00"/><path d="M 117.37515411084777 68.02849055478283 A 78 78 0 0 1 125.17732225456349 67.1492339192242 L 126.90853990677147 95.09566276873346 A 50 50 0 0 0 121.90715007105626 95.65928881716849 Z" fill="#e34c26"/><path d="M 125.17732225456349 67.1492339192242 A 78 78 0 0 1 129.46488457478065 67.00183558902368 L 129.65697729152606 95.00117665963057 A 50 50 0 0 0 126.90853990677147 95.09566276873346 Z" fill="#A97BFF"/><path d="M 129.46488457478065 67.00183558902368 A 78 78 0 0 1 129.99999999999997 67 L 130 95 A 50 50 0 0 0 129.65697729152606 95.00117665963057 Z" fill="#89e051"/>
  
    <rect x="290" y="69" width="12" height="12" rx="3" fill="#dea584"/>
    <text x="312" y="80" class="lang-name">Rust</text>
    <text x="599" y="80" class="lang-pct" text-anchor="end">37.13%</text>
    <rect x="290" y="99" width="12" height="12" rx="3" fill="#3178c6"/>
    <text x="312" y="110" class="lang-name">TypeScript</text>
    <text x="599" y="110" class="lang-pct" text-anchor="end">28.86%</text>
    <rect x="290" y="129" width="12" height="12" rx="3" fill="#663399"/>
    <text x="312" y="140" class="lang-name">CSS</text>
    <text x="599" y="140" class="lang-pct" text-anchor="end">10.17%</text>
    <rect x="290" y="159" width="12" height="12" rx="3" fill="#f1e05a"/>
    <text x="312" y="170" class="lang-name">JavaScript</text>
    <text x="599" y="170" class="lang-pct" text-anchor="end">7.27%</text>
    <rect x="290" y="189" width="12" height="12" rx="3" fill="#178600"/>
    <text x="312" y="200" class="lang-name">C#</text>
    <text x="599" y="200" class="lang-pct" text-anchor="end">5.02%</text>
    <rect x="629" y="69" width="12" height="12" rx="3" fill="#3572A5"/>
    <text x="651" y="80" class="lang-name">Python</text>
    <text x="938" y="80" class="lang-pct" text-anchor="end">5.00%</text>
    <rect x="629" y="99" width="12" height="12" rx="3" fill="#ff3e00"/>
    <text x="651" y="110" class="lang-name">Svelte</text>
    <text x="938" y="110" class="lang-pct" text-anchor="end">3.96%</text>
    <rect x="629" y="129" width="12" height="12" rx="3" fill="#e34c26"/>
    <text x="651" y="140" class="lang-name">HTML</text>
    <text x="938" y="140" class="lang-pct" text-anchor="end">1.60%</text>
    <rect x="629" y="159" width="12" height="12" rx="3" fill="#A97BFF"/>
    <text x="651" y="170" class="lang-name">Kotlin</text>
    <text x="938" y="170" class="lang-pct" text-anchor="end">0.88%</text>
    <rect x="629" y="189" width="12" height="12" rx="3" fill="#89e051"/>
    <text x="651" y="200" class="lang-name">Shell</text>
    <text x="938" y="200" class="lang-pct" text-anchor="end">0.11%</text>
</svg>