<svg xmlns="http://www.w3.org/2000/svg" width="968" height="250" viewBox="0 0 968 250" fill="none" role="img">
  <rect width="968" height="250" fill="#0a192f" rx="6"/>
  <style>
    .title { font: 700 15px "Segoe UI", Helvetica, sans-serif; fill: #64ffda; letter-spacing: 0.5px; }
    .lang-name { font: 600 13px "Segoe UI", Helvetica, sans-serif; fill: #ccd6f6; }
    .lang-pct { font: 400 13px "Segoe UI", Helvetica, sans-serif; fill: #8892b0; }
  </style>
  <text x="30" y="30" class="title">Most Used Languages</text>
  <path d="M 130 67 A 78 78 0 0 1 162.223706064461 216.03261763071401 L 150.65622183619294 190.5337292504577 A 50 50 0 0 0 130 95 Z" fill="#dea584"/><path d="M 162.223706064461 216.03261763071401 A 78 78 0 0 1 60.33803067835187 180.08860256877944 L 85.34489146048196 167.4926939543458 A 50 50 0 0 0 150.65622183619294 190.5337292504577 Z" fill="#3178c6"/><path d="M 60.33803067835187 180.08860256877944 A 78 78 0 0 1 52.56563892462033 135.62344813656287 L 80.36258905424381 138.98938983113004 A 50 50 0 0 0 85.34489146048196 167.4926939543458 Z" fill="#178600"/><path d="M 52.56563892462033 135.62344813656287 A 78 78 0 0 1 67.08541111114832 98.89409468466343 L 89.67013532765918 115.44493249016887 A 50 50 0 0 0 80.36258905424381 138.98938983113004 Z" fill="#663399"/><path d="M 67.08541111114832 98.89409468466343 A 78 78 0 0 1 87.59686749060492 79.53264665964659 L 102.81850480166983 103.03374785874782 A 50 50 0 0 0 89.67013532765918 115.44493249016887 Z" fill="#f1e05a"/><path d="M 87.59686749060492 79.53264665964659 A 78 78 0 0 1 103.80567103104222 71.52988954774861 L 113.20876348143733 97.9037753511209 A 50 50 0 0 0 102.81850480166983 103.03374785874782 Z" fill="#3572A5"/><path d="M 103.80567103104222 71.52988954774861 A 78 78 0 0 1 117.70708051521746 67.97478250247745 L 122.11992340719067 95.62486057851119 A 50 50 0 0 0 113.20876348143733 97.9037753511209 Z" fill="#ff3e00"/><path d="M 117.70708051521746 67.97478250247745 A 78 78 0 0 1 123.6566597073254 67.25836357567889 L 125.93375622264449 95.16561767671723 A 50 50 0 0 0 122.11992340719067 95.62486057851119 Z" fill="#e34c26"/><path d="M 123.6566597073254 67.25836357567889 A 78 78 0 0 1 126.82467808064924 67.06465929561551 L 127.9645372311854 95.04144826642019 A 50 50 0 0 0 125.93375622264449 95.16561767671723 Z" fill="#A97BFF"/><path d="M 126.82467808064924 67.06465929561551 A 78 78 0 0 1 129.6041275438774 67.00100458981228 L 129.74623560504963 95.00064396782838 A 50 50 0 0 0 127.9645372311854 95.04144826642019 Z" fill="#336790"/>
  
    <rect x="290" y="69" width="12" height="12" rx="3" fill="#dea584"/>
    <text x="312" y="80" class="lang-name">Rust</text>
    <text x="599" y="80" class="lang-pct" text-anchor="end">43.22%</text>
    <rect x="290" y="99" width="12" height="12" rx="3" fill="#3178c6"/>
    <text x="312" y="110" class="lang-name">TypeScript</text>
    <text x="599" y="110" class="lang-pct" text-anchor="end">24.35%</text>
    <rect x="290" y="129" width="12" height="12" rx="3" fill="#178600"/>
    <text x="312" y="140" class="lang-name">C#</text>
    <text x="599" y="140" class="lang-pct" text-anchor="end">9.34%</text>
    <rect x="290" y="159" width="12" height="12" rx="3" fill="#663399"/>
    <text x="312" y="170" class="lang-name">CSS</text>
    <text x="599" y="170" class="lang-pct" text-anchor="end">8.15%</text>
    <rect x="290" y="189" width="12" height="12" rx="3" fill="#f1e05a"/>
    <text x="312" y="200" class="lang-name">JavaScript</text>
    <text x="599" y="200" class="lang-pct" text-anchor="end">5.79%</text>
    <rect x="629" y="69" width="12" height="12" rx="3" fill="#3572A5"/>
    <text x="651" y="80" class="lang-name">Python</text>
    <text x="938" y="80" class="lang-pct" text-anchor="end">3.70%</text>
    <rect x="629" y="99" width="12" height="12" rx="3" fill="#ff3e00"/>
    <text x="651" y="110" class="lang-name">Svelte</text>
    <text x="938" y="110" class="lang-pct" text-anchor="end">2.93%</text>
    <rect x="629" y="129" width="12" height="12" rx="3" fill="#e34c26"/>
    <text x="651" y="140" class="lang-name">HTML</text>
    <text x="938" y="140" class="lang-pct" text-anchor="end">1.22%</text>
    <rect x="629" y="159" width="12" height="12" rx="3" fill="#A97BFF"/>
    <text x="651" y="170" class="lang-name">Kotlin</text>
    <text x="938" y="170" class="lang-pct" text-anchor="end">0.65%</text>
    <rect x="629" y="189" width="12" height="12" rx="3" fill="#336790"/>
    <text x="651" y="200" class="lang-name">PLpgSQL</text>
    <text x="938" y="200" class="lang-pct" text-anchor="end">0.57%</text>
</svg>