<svg xmlns="http://www.w3.org/2000/svg" width="968" height="250" viewBox="0 0 968 250" fill="none" role="img">
  <rect width="968" height="250" fill="#0a192f" rx="6"/>
  <style>
    .title { font: 700 15px "Segoe UI", Helvetica, sans-serif; fill: #64ffda; letter-spacing: 0.5px; }
    .lang-name { font: 600 13px "Segoe UI", Helvetica, sans-serif; fill: #ccd6f6; }
    .lang-pct { font: 400 13px "Segoe UI", Helvetica, sans-serif; fill: #8892b0; }
  </style>
  <text x="30" y="30" class="title">Most Used Languages</text>
  <path d="M 130 67 A 78 78 0 0 1 149.0253600297703 220.6441384096456 L 142.19574360882712 193.48983231387538 A 50 50 0 0 0 130 95 Z" fill="#dea584"/><path d="M 149.0253600297703 220.6441384096456 A 78 78 0 0 1 53.34531561998786 159.42426298292995 L 80.86238180768453 154.24632242495508 A 50 50 0 0 0 142.19574360882712 193.48983231387538 Z" fill="#3178c6"/><path d="M 53.34531561998786 159.42426298292995 A 78 78 0 0 1 56.99333991078494 117.5404373192541 L 83.20085891716984 127.39771623029108 A 50 50 0 0 0 80.86238180768453 154.24632242495508 Z" fill="#663399"/><path d="M 56.99333991078494 117.5404373192541 A 78 78 0 0 1 72.79044547217205 91.98050480504854 L 93.32720863600773 111.01314410580035 A 50 50 0 0 0 83.20085891716984 127.39771623029108 Z" fill="#f1e05a"/><path d="M 72.79044547217205 91.98050480504854 A 78 78 0 0 1 87.59786880758018 79.53199811861661 L 102.81914667152576 103.03333212731835 A 50 50 0 0 0 93.32720863600773 111.01314410580035 Z" fill="#178600"/><path d="M 87.59786880758018 79.53199811861661 A 78 78 0 0 1 104.93768998809513 71.13606687383096 L 113.93441665903534 97.6513249191224 A 50 50 0 0 0 102.81914667152576 103.03333212731835 Z" fill="#3572A5"/><path d="M 104.93768998809513 71.13606687383096 A 78 78 0 0 1 119.83286268933134 67.66547136688548 L 123.4826042880329 95.42658420954197 A 50 50 0 0 0 113.93441665903534 97.6513249191224 Z" fill="#ff3e00"/><path d="M 119.83286268933134 67.66547136688548 A 78 78 0 0 1 126.19553851204016 67.09283683263374 L 127.56124263592318 95.05951079014983 A 50 50 0 0 0 123.4826042880329 95.42658420954197 Z" fill="#e34c26"/><path d="M 126.19553851204016 67.09283683263374 A 78 78 0 0 1 129.57796452262508 67.0011417644089 L 129.7294644375802 95.00073190026211 A 50 50 0 0 0 127.56124263592318 95.05951079014983 Z" fill="#A97BFF"/><path d="M 129.57796452262508 67.0011417644089 A 78 78 0 0 1 130.00000000000006 67 L 130.00000000000003 95 A 50 50 0 0 0 129.7294644375802 95.00073190026211 Z" fill="#89e051"/>
  
    <rect x="290" y="69" width="12" height="12" rx="3" fill="#dea584"/>
    <text x="312" y="80" class="lang-name">Rust</text>
    <text x="599" y="80" class="lang-pct" text-anchor="end">46.08%</text>
    <rect x="290" y="99" width="12" height="12" rx="3" fill="#3178c6"/>
    <text x="312" y="110" class="lang-name">TypeScript</text>
    <text x="599" y="110" class="lang-pct" text-anchor="end">25.96%</text>
    <rect x="290" y="129" width="12" height="12" rx="3" fill="#663399"/>
    <text x="312" y="140" class="lang-name">CSS</text>
    <text x="599" y="140" class="lang-pct" text-anchor="end">8.69%</text>
    <rect x="290" y="159" width="12" height="12" rx="3" fill="#f1e05a"/>
    <text x="312" y="170" class="lang-name">JavaScript</text>
    <text x="599" y="170" class="lang-pct" text-anchor="end">6.17%</text>
    <rect x="290" y="189" width="12" height="12" rx="3" fill="#178600"/>
    <text x="312" y="200" class="lang-name">C#</text>
    <text x="599" y="200" class="lang-pct" text-anchor="end">3.96%</text>
    <rect x="629" y="69" width="12" height="12" rx="3" fill="#3572A5"/>
    <text x="651" y="80" class="lang-name">Python</text>
    <text x="938" y="80" class="lang-pct" text-anchor="end">3.94%</text>
    <rect x="629" y="99" width="12" height="12" rx="3" fill="#ff3e00"/>
    <text x="651" y="110" class="lang-name">Svelte</text>
    <text x="938" y="110" class="lang-pct" text-anchor="end">3.13%</text>
    <rect x="629" y="129" width="12" height="12" rx="3" fill="#e34c26"/>
    <text x="651" y="140" class="lang-name">HTML</text>
    <text x="938" y="140" class="lang-pct" text-anchor="end">1.30%</text>
    <rect x="629" y="159" width="12" height="12" rx="3" fill="#A97BFF"/>
    <text x="651" y="170" class="lang-name">Kotlin</text>
    <text x="938" y="170" class="lang-pct" text-anchor="end">0.69%</text>
    <rect x="629" y="189" width="12" height="12" rx="3" fill="#89e051"/>
    <text x="651" y="200" class="lang-name">Shell</text>
    <text x="938" y="200" class="lang-pct" text-anchor="end">0.09%</text>
</svg>