<svg xmlns="http://www.w3.org/2000/svg" width="968" height="250" viewBox="0 0 968 250" fill="none" role="img">
  <rect width="968" height="250" fill="#0a192f" rx="6"/>
  <style>
    .title { font: 700 15px "Segoe UI", Helvetica, sans-serif; fill: #64ffda; letter-spacing: 0.5px; }
    .lang-name { font: 600 13px "Segoe UI", Helvetica, sans-serif; fill: #ccd6f6; }
    .lang-pct { font: 400 13px "Segoe UI", Helvetica, sans-serif; fill: #8892b0; }
  </style>
  <text x="30" y="30" class="title">Most Used Languages</text>
  <path d="M 130 67 A 78 78 0 0 1 165.078121490093 214.66724763277415 L 152.48597531416218 189.65849207229112 A 50 50 0 0 0 130 95 Z" fill="#dea584"/><path d="M 165.078121490093 214.66724763277415 A 78 78 0 0 1 62.702149600970486 184.43347983211527 L 86.86035230831442 170.27787168725337 A 50 50 0 0 0 152.48597531416218 189.65849207229112 Z" fill="#3178c6"/><path d="M 62.702149600970486 184.43347983211527 A 78 78 0 0 1 52.78694219081038 133.94813573397036 L 80.50445012231435 137.91547162433997 A 50 50 0 0 0 86.86035230831442 170.27787168725337 Z" fill="#178600"/><path d="M 52.78694219081038 133.94813573397036 A 78 78 0 0 1 67.73788362023262 98.01671718672372 L 90.08838693604656 114.8825110171306 A 50 50 0 0 0 80.50445012231435 137.91547162433997 Z" fill="#663399"/><path d="M 67.73788362023262 98.01671718672372 A 78 78 0 0 1 88.16053015293303 79.17098844038159 L 103.17982702111092 102.80191566691127 A 50 50 0 0 0 90.08838693604656 114.8825110171306 Z" fill="#f1e05a"/><path d="M 88.16053015293303 79.17098844038159 A 78 78 0 0 1 104.18189915503812 71.39683655739124 L 113.44993535579367 97.81848497268669 A 50 50 0 0 0 103.17982702111092 102.80191566691127 Z" fill="#3572A5"/><path d="M 104.18189915503812 71.39683655739124 A 78 78 0 0 1 117.889218202901 67.94593479729278 L 122.23667833519295 95.60636845980306 A 50 50 0 0 0 113.44993535579367 97.81848497268669 Z" fill="#ff3e00"/><path d="M 117.889218202901 67.94593479729278 A 78 78 0 0 1 123.75121566259638 67.25070614915772 L 125.99436901448486 95.16070906997291 A 50 50 0 0 0 122.23667833519295 95.60636845980306 Z" fill="#e34c26"/><path d="M 123.75121566259638 67.25070614915772 A 78 78 0 0 1 126.87208737119687 67.06274214095949 L 127.99492780204928 95.04021932112786 A 50 50 0 0 0 125.99436901448486 95.16070906997291 Z" fill="#A97BFF"/><path d="M 126.87208737119687 67.06274214095949 A 78 78 0 0 1 129.61004128236925 67.00097479969033 L 129.7500264630572 95.00062487159636 A 50 50 0 0 0 127.99492780204928 95.04021932112786 Z" fill="#336790"/>
  
    <rect x="290" y="69" width="12" height="12" rx="3" fill="#dea584"/>
    <text x="312" y="80" class="lang-name">Rust</text>
    <text x="599" y="80" class="lang-pct" text-anchor="end">42.58%</text>
    <rect x="290" y="99" width="12" height="12" rx="3" fill="#3178c6"/>
    <text x="312" y="110" class="lang-name">TypeScript</text>
    <text x="599" y="110" class="lang-pct" text-anchor="end">23.99%</text>
    <rect x="290" y="129" width="12" height="12" rx="3" fill="#178600"/>
    <text x="312" y="140" class="lang-name">C#</text>
    <text x="599" y="140" class="lang-pct" text-anchor="end">10.70%</text>
    <rect x="290" y="159" width="12" height="12" rx="3" fill="#663399"/>
    <text x="312" y="170" class="lang-name">CSS</text>
    <text x="599" y="170" class="lang-pct" text-anchor="end">8.03%</text>
    <rect x="290" y="189" width="12" height="12" rx="3" fill="#f1e05a"/>
    <text x="312" y="200" class="lang-name">JavaScript</text>
    <text x="599" y="200" class="lang-pct" text-anchor="end">5.70%</text>
    <rect x="629" y="69" width="12" height="12" rx="3" fill="#3572A5"/>
    <text x="651" y="80" class="lang-name">Python</text>
    <text x="938" y="80" class="lang-pct" text-anchor="end">3.64%</text>
    <rect x="629" y="99" width="12" height="12" rx="3" fill="#ff3e00"/>
    <text x="651" y="110" class="lang-name">Svelte</text>
    <text x="938" y="110" class="lang-pct" text-anchor="end">2.89%</text>
    <rect x="629" y="129" width="12" height="12" rx="3" fill="#e34c26"/>
    <text x="651" y="140" class="lang-name">HTML</text>
    <text x="938" y="140" class="lang-pct" text-anchor="end">1.20%</text>
    <rect x="629" y="159" width="12" height="12" rx="3" fill="#A97BFF"/>
    <text x="651" y="170" class="lang-name">Kotlin</text>
    <text x="938" y="170" class="lang-pct" text-anchor="end">0.64%</text>
    <rect x="629" y="189" width="12" height="12" rx="3" fill="#336790"/>
    <text x="651" y="200" class="lang-name">PLpgSQL</text>
    <text x="938" y="200" class="lang-pct" text-anchor="end">0.56%</text>
</svg>