<svg xmlns="http://www.w3.org/2000/svg" width="968" height="250" viewBox="0 0 968 250" fill="none" role="img">
  <rect width="968" height="250" fill="#0a192f" rx="6"/>
  <style>
    .title { font: 700 15px "Segoe UI", Helvetica, sans-serif; fill: #64ffda; letter-spacing: 0.5px; }
    .lang-name { font: 600 13px "Segoe UI", Helvetica, sans-serif; fill: #ccd6f6; }
    .lang-pct { font: 400 13px "Segoe UI", Helvetica, sans-serif; fill: #8892b0; }
  </style>
  <text x="30" y="30" class="title">Most Used Languages</text>
  <path d="M 130 67 A 78 78 0 0 1 197.80620690546104 183.55279892684587 L 173.46551724709042 169.713332645414 A 50 50 0 0 0 130 95 Z" fill="#3178c6"/><path d="M 197.80620690546104 183.55279892684587 A 78 78 0 0 1 106.7732074729655 219.4615075653595 L 115.11103043138813 192.7317356188202 A 50 50 0 0 0 173.46551724709042 169.713332645414 Z" fill="#dea584"/><path d="M 106.7732074729655 219.4615075653595 A 78 78 0 0 1 62.4534796443845 184.00599425535032 L 86.70094848999007 170.0038424713784 A 50 50 0 0 0 115.11103043138813 192.7317356188202 Z" fill="#663399"/><path d="M 62.4534796443845 184.00599425535032 A 78 78 0 0 1 53.47823155495317 129.88646454192016 L 80.94758433009818 135.31183624482063 A 50 50 0 0 0 86.70094848999007 170.0038424713784 Z" fill="#f1e05a"/><path d="M 53.47823155495317 129.88646454192016 A 78 78 0 0 1 72.3495191045057 92.46028119110031 L 93.0445635285293 111.32069307121816 A 50 50 0 0 0 80.94758433009818 135.31183624482063 Z" fill="#3572A5"/><path d="M 72.3495191045057 92.46028119110031 A 78 78 0 0 1 99.6071865917595 73.16493270601136 L 110.51742730240994 98.95187993975087 A 50 50 0 0 0 93.0445635285293 111.32069307121816 Z" fill="#ff3e00"/><path d="M 99.6071865917595 73.16493270601136 A 78 78 0 0 1 110.81533824506525 69.39610622892003 L 117.70213990068285 96.535965531359 A 50 50 0 0 0 110.51742730240994 98.95187993975087 Z" fill="#178600"/><path d="M 110.81533824506525 69.39610622892003 A 78 78 0 0 1 121.65400507723758 67.44779584854327 L 124.65000325463947 95.28704862086107 A 50 50 0 0 0 117.70213990068285 96.535965531359 Z" fill="#e34c26"/><path d="M 121.65400507723758 67.44779584854327 A 78 78 0 0 1 129.07277393519615 67.00551140096661 L 129.40562431743345 95.00353294933757 A 50 50 0 0 0 124.65000325463947 95.28704862086107 Z" fill="#A97BFF"/><path d="M 129.07277393519615 67.00551140096661 A 78 78 0 0 1 130.00000000000006 67 L 130.00000000000003 95 A 50 50 0 0 0 129.40562431743345 95.00353294933757 Z" fill="#89e051"/>
  
    <rect x="290" y="69" width="12" height="12" rx="3" fill="#3178c6"/>
    <text x="312" y="80" class="lang-name">TypeScript</text>
    <text x="599" y="80" class="lang-pct" text-anchor="end">33.23%</text>
    <rect x="290" y="99" width="12" height="12" rx="3" fill="#dea584"/>
    <text x="312" y="110" class="lang-name">Rust</text>
    <text x="599" y="110" class="lang-pct" text-anchor="end">21.58%</text>
    <rect x="290" y="129" width="12" height="12" rx="3" fill="#663399"/>
    <text x="312" y="140" class="lang-name">CSS</text>
    <text x="599" y="140" class="lang-pct" text-anchor="end">11.85%</text>
    <rect x="290" y="159" width="12" height="12" rx="3" fill="#f1e05a"/>
    <text x="312" y="170" class="lang-name">JavaScript</text>
    <text x="599" y="170" class="lang-pct" text-anchor="end">11.44%</text>
    <rect x="290" y="189" width="12" height="12" rx="3" fill="#3572A5"/>
    <text x="312" y="200" class="lang-name">Python</text>
    <text x="599" y="200" class="lang-pct" text-anchor="end">8.66%</text>
    <rect x="629" y="69" width="12" height="12" rx="3" fill="#ff3e00"/>
    <text x="651" y="80" class="lang-name">Svelte</text>
    <text x="938" y="80" class="lang-pct" text-anchor="end">6.87%</text>
    <rect x="629" y="99" width="12" height="12" rx="3" fill="#178600"/>
    <text x="651" y="110" class="lang-name">C#</text>
    <text x="938" y="110" class="lang-pct" text-anchor="end">2.42%</text>
    <rect x="629" y="129" width="12" height="12" rx="3" fill="#e34c26"/>
    <text x="651" y="140" class="lang-name">HTML</text>
    <text x="938" y="140" class="lang-pct" text-anchor="end">2.25%</text>
    <rect x="629" y="159" width="12" height="12" rx="3" fill="#A97BFF"/>
    <text x="651" y="170" class="lang-name">Kotlin</text>
    <text x="938" y="170" class="lang-pct" text-anchor="end">1.52%</text>
    <rect x="629" y="189" width="12" height="12" rx="3" fill="#89e051"/>
    <text x="651" y="200" class="lang-name">Shell</text>
    <text x="938" y="200" class="lang-pct" text-anchor="end">0.19%</text>
</svg>