<svg xmlns="http://www.w3.org/2000/svg" width="968" height="250" viewBox="0 0 968 250" fill="none" role="img">
  <rect width="968" height="250" fill="#0a192f" rx="6"/>
  <style>
    .title { font: 700 15px "Segoe UI", Helvetica, sans-serif; fill: #64ffda; letter-spacing: 0.5px; }
    .lang-name { font: 600 13px "Segoe UI", Helvetica, sans-serif; fill: #ccd6f6; }
    .lang-pct { font: 400 13px "Segoe UI", Helvetica, sans-serif; fill: #8892b0; }
  </style>
  <text x="30" y="30" class="title">Most Used Languages</text>
  <path d="M 130 67 A 78 78 0 1 1 65.52944014907779 188.903837104616 L 88.67271804428063 173.1434853234718 A 50 50 0 1 0 130 95 Z" fill="#3178c6"/><path d="M 65.52944014907779 188.903837104616 A 78 78 0 0 1 55.494306625825715 121.91533723803785 L 82.23994014476007 130.20213925515247 A 50 50 0 0 0 88.67271804428063 173.1434853234718 Z" fill="#178600"/><path d="M 55.494306625825715 121.91533723803785 A 78 78 0 0 1 87.95529310511881 79.30188265921518 L 103.04826481097359 102.88582221744562 A 50 50 0 0 0 82.23994014476007 130.20213925515247 Z" fill="#dea584"/><path d="M 87.95529310511881 79.30188265921518 A 78 78 0 0 1 103.41354856773577 71.67087481607423 L 112.95740292803575 97.99415052312452 A 50 50 0 0 0 103.04826481097359 102.88582221744562 Z" fill="#663399"/><path d="M 103.41354856773577 71.67087481607423 A 78 78 0 0 1 117.01254152073255 68.08884396754068 L 121.67470610303369 95.69797690226966 A 50 50 0 0 0 112.95740292803575 97.99415052312452 Z" fill="#f1e05a"/><path d="M 117.01254152073255 68.08884396754068 A 78 78 0 0 1 123.19904513936724 67.2970591741623 L 125.64041355087645 95.19042254753992 A 50 50 0 0 0 121.67470610303369 95.69797690226966 Z" fill="#e34c26"/><path d="M 123.19904513936724 67.2970591741623 A 78 78 0 0 1 126.32809168831078 67.08647685189337 L 127.64621262071203 95.05543387941883 A 50 50 0 0 0 125.64041355087645 95.19042254753992 Z" fill="#89e051"/><path d="M 126.32809168831078 67.08647685189337 A 78 78 0 0 1 128.5835788459895 67.01286163017346 L 129.09203772178816 95.00824463472657 A 50 50 0 0 0 127.64621262071203 95.05543387941883 Z" fill="#336790"/><path d="M 128.5835788459895 67.01286163017346 A 78 78 0 0 1 129.87171805472423 67.00010548890135 L 129.91776798379757 95.00006762109061 A 50 50 0 0 0 129.09203772178816 95.00824463472657 Z" fill="#A97BFF"/><path d="M 129.87171805472423 67.00010548890135 A 78 78 0 0 1 130.00000000000006 67 L 130.00000000000003 95 A 50 50 0 0 0 129.91776798379757 95.00006762109061 Z" fill="#012456"/>
  
    <rect x="290" y="69" width="12" height="12" rx="3" fill="#3178c6"/>
    <text x="312" y="80" class="lang-name">TypeScript</text>
    <text x="599" y="80" class="lang-pct" text-anchor="end">65.48%</text>
    <rect x="290" y="99" width="12" height="12" rx="3" fill="#178600"/>
    <text x="312" y="110" class="lang-name">C#</text>
    <text x="599" y="110" class="lang-pct" text-anchor="end">14.30%</text>
    <rect x="290" y="129" width="12" height="12" rx="3" fill="#dea584"/>
    <text x="312" y="140" class="lang-name">Rust</text>
    <text x="599" y="140" class="lang-pct" text-anchor="end">11.16%</text>
    <rect x="290" y="159" width="12" height="12" rx="3" fill="#663399"/>
    <text x="312" y="170" class="lang-name">CSS</text>
    <text x="599" y="170" class="lang-pct" text-anchor="end">3.52%</text>
    <rect x="290" y="189" width="12" height="12" rx="3" fill="#f1e05a"/>
    <text x="312" y="200" class="lang-name">JavaScript</text>
    <text x="599" y="200" class="lang-pct" text-anchor="end">2.87%</text>
    <rect x="629" y="69" width="12" height="12" rx="3" fill="#e34c26"/>
    <text x="651" y="80" class="lang-name">HTML</text>
    <text x="938" y="80" class="lang-pct" text-anchor="end">1.27%</text>
    <rect x="629" y="99" width="12" height="12" rx="3" fill="#89e051"/>
    <text x="651" y="110" class="lang-name">Shell</text>
    <text x="938" y="110" class="lang-pct" text-anchor="end">0.64%</text>
    <rect x="629" y="129" width="12" height="12" rx="3" fill="#336790"/>
    <text x="651" y="140" class="lang-name">PLpgSQL</text>
    <text x="938" y="140" class="lang-pct" text-anchor="end">0.46%</text>
    <rect x="629" y="159" width="12" height="12" rx="3" fill="#A97BFF"/>
    <text x="651" y="170" class="lang-name">Kotlin</text>
    <text x="938" y="170" class="lang-pct" text-anchor="end">0.26%</text>
    <rect x="629" y="189" width="12" height="12" rx="3" fill="#012456"/>
    <text x="651" y="200" class="lang-name">PowerShell</text>
    <text x="938" y="200" class="lang-pct" text-anchor="end">0.03%</text>
</svg>