<svg xmlns="http://www.w3.org/2000/svg" width="968" height="250" viewBox="0 0 968 250" fill="none" role="img">
  <rect width="968" height="250" fill="#0a192f" rx="6"/>
  <style>
    .title { font: 700 15px "Segoe UI", Helvetica, sans-serif; fill: #64ffda; letter-spacing: 0.5px; }
    .lang-name { font: 600 13px "Segoe UI", Helvetica, sans-serif; fill: #ccd6f6; }
    .lang-pct { font: 400 13px "Segoe UI", Helvetica, sans-serif; fill: #8892b0; }
  </style>
  <text x="30" y="30" class="title">Most Used Languages</text>
  <path d="M 130 67 A 78 78 0 0 1 171.3631058212889 211.12936924556936 L 156.51481142390315 187.3906213112624 A 50 50 0 0 0 130 95 Z" fill="#dea584"/><path d="M 171.3631058212889 211.12936924556936 A 78 78 0 0 1 61.70893528558652 182.68727212430994 L 86.22367646511957 169.15850777199356 A 50 50 0 0 0 156.51481142390315 187.3906213112624 Z" fill="#3178c6"/><path d="M 61.70893528558652 182.68727212430994 A 78 78 0 0 1 53.64816300098413 129.05017282614918 L 81.05651474422059 134.77575181163408 A 50 50 0 0 0 86.22367646511957 169.15850777199356 Z" fill="#178600"/><path d="M 53.64816300098413 129.05017282614918 A 78 78 0 0 1 70.22420471204076 94.8915745837889 L 91.68218250771844 112.87921447678775 A 50 50 0 0 0 81.05651474422059 134.77575181163408 Z" fill="#663399"/><path d="M 70.22420471204076 94.8915745837889 A 78 78 0 0 1 90.20725070757229 77.91395745946856 L 104.4918273766489 101.99612657658241 A 50 50 0 0 0 91.68218250771844 112.87921447678775 Z" fill="#f1e05a"/><path d="M 90.20725070757229 77.91395745946856 A 78 78 0 0 1 105.49290341883098 70.95000190978224 L 114.29032270437884 97.53205250627067 A 50 50 0 0 0 104.4918273766489 101.99612657658241 Z" fill="#3572A5"/><path d="M 105.49290341883098 70.95000190978224 A 78 78 0 0 1 118.46107344727471 67.85822678982022 L 122.60325220979148 95.55014537808988 A 50 50 0 0 0 114.29032270437884 97.53205250627067 Z" fill="#ff3e00"/><path d="M 118.46107344727471 67.85822678982022 A 78 78 0 0 1 124.10657821363597 67.22296238832435 L 126.22216552156152 95.14292460790023 A 50 50 0 0 0 122.60325220979148 95.55014537808988 Z" fill="#e34c26"/><path d="M 124.10657821363597 67.22296238832435 A 78 78 0 0 1 127.05023150633805 67.05579645776218 L 128.10912276047313 95.03576696010396 A 50 50 0 0 0 126.22216552156152 95.14292460790023 Z" fill="#A97BFF"/><path d="M 127.05023150633805 67.05579645776218 A 78 78 0 0 1 129.6322613668601 67.00086687470369 L 129.7642701069616 95.00055568891261 A 50 50 0 0 0 128.10912276047313 95.03576696010396 Z" fill="#336790"/>
  
    <rect x="290" y="69" width="12" height="12" rx="3" fill="#dea584"/>
    <text x="312" y="80" class="lang-name">Rust</text>
    <text x="599" y="80" class="lang-pct" text-anchor="end">41.10%</text>
    <rect x="290" y="99" width="12" height="12" rx="3" fill="#3178c6"/>
    <text x="312" y="110" class="lang-name">TypeScript</text>
    <text x="599" y="110" class="lang-pct" text-anchor="end">25.87%</text>
    <rect x="290" y="129" width="12" height="12" rx="3" fill="#178600"/>
    <text x="312" y="140" class="lang-name">C#</text>
    <text x="599" y="140" class="lang-pct" text-anchor="end">11.30%</text>
    <rect x="290" y="159" width="12" height="12" rx="3" fill="#663399"/>
    <text x="312" y="170" class="lang-name">CSS</text>
    <text x="599" y="170" class="lang-pct" text-anchor="end">7.83%</text>
    <rect x="290" y="189" width="12" height="12" rx="3" fill="#f1e05a"/>
    <text x="312" y="200" class="lang-name">JavaScript</text>
    <text x="599" y="200" class="lang-pct" text-anchor="end">5.38%</text>
    <rect x="629" y="69" width="12" height="12" rx="3" fill="#3572A5"/>
    <text x="651" y="80" class="lang-name">Python</text>
    <text x="938" y="80" class="lang-pct" text-anchor="end">3.43%</text>
    <rect x="629" y="99" width="12" height="12" rx="3" fill="#ff3e00"/>
    <text x="651" y="110" class="lang-name">Svelte</text>
    <text x="938" y="110" class="lang-pct" text-anchor="end">2.72%</text>
    <rect x="629" y="129" width="12" height="12" rx="3" fill="#e34c26"/>
    <text x="651" y="140" class="lang-name">HTML</text>
    <text x="938" y="140" class="lang-pct" text-anchor="end">1.16%</text>
    <rect x="629" y="159" width="12" height="12" rx="3" fill="#A97BFF"/>
    <text x="651" y="170" class="lang-name">Kotlin</text>
    <text x="938" y="170" class="lang-pct" text-anchor="end">0.60%</text>
    <rect x="629" y="189" width="12" height="12" rx="3" fill="#336790"/>
    <text x="651" y="200" class="lang-name">PLpgSQL</text>
    <text x="938" y="200" class="lang-pct" text-anchor="end">0.53%</text>
</svg>