<svg xmlns="http://www.w3.org/2000/svg" width="968" height="250" viewBox="0 0 968 250" fill="none" role="img">
  <rect width="968" height="250" fill="#0a192f" rx="6"/>
  <style>
    .title { font: 700 15px "Segoe UI", Helvetica, sans-serif; fill: #64ffda; letter-spacing: 0.5px; }
    .lang-name { font: 600 13px "Segoe UI", Helvetica, sans-serif; fill: #ccd6f6; }
    .lang-pct { font: 400 13px "Segoe UI", Helvetica, sans-serif; fill: #8892b0; }
  </style>
  <text x="30" y="30" class="title">Most Used Languages</text>
  <path d="M 130 67 A 78 78 0 0 1 165.87835485890943 214.25852765268814 L 152.99894542237786 189.3964920850565 A 50 50 0 0 0 130 95 Z" fill="#dea584"/><path d="M 165.87835485890943 214.25852765268814 A 78 78 0 0 1 56.199000919120834 170.24703021474156 L 82.69166725584668 161.18399372739844 A 50 50 0 0 0 152.99894542237786 189.3964920850565 Z" fill="#3178c6"/><path d="M 56.199000919120834 170.24703021474156 A 78 78 0 0 1 54.604182077134865 125.0132383878186 L 81.66934748534285 132.18797332552475 A 50 50 0 0 0 82.69166725584668 161.18399372739844 Z" fill="#663399"/><path d="M 54.604182077134865 125.0132383878186 A 78 78 0 0 1 69.29976348072358 96.01549952787207 L 91.08959197482281 113.59967918453339 A 50 50 0 0 0 81.66934748534285 132.18797332552475 Z" fill="#f1e05a"/><path d="M 69.29976348072358 96.01549952787207 A 78 78 0 0 1 84.52097373853897 81.63077899871786 L 100.84677803752498 104.3787044863576 A 50 50 0 0 0 91.08959197482281 113.59967918453339 Z" fill="#178600"/><path d="M 84.52097373853897 81.63077899871786 A 78 78 0 0 1 102.93958620049177 71.84445335451737 L 112.65358089775114 98.10541881699831 A 50 50 0 0 0 100.84677803752498 104.3787044863576 Z" fill="#3572A5"/><path d="M 102.93958620049177 71.84445335451737 A 78 78 0 0 1 118.99351234317048 67.78046083108201 L 122.94455919434004 95.50029540453976 A 50 50 0 0 0 112.65358089775114 98.10541881699831 Z" fill="#ff3e00"/><path d="M 118.99351234317048 67.78046083108201 A 78 78 0 0 1 125.87971019515638 67.10890158738226 L 127.3587885866387 95.06980870986042 A 50 50 0 0 0 122.94455919434004 95.50029540453976 Z" fill="#e34c26"/><path d="M 125.87971019515638 67.10890158738226 A 78 78 0 0 1 129.54289812929613 67.00133938406506 L 129.70698598031805 95.00085857952888 A 50 50 0 0 0 127.3587885866387 95.06980870986042 Z" fill="#A97BFF"/><path d="M 129.54289812929613 67.00133938406506 A 78 78 0 0 1 130.00000000000006 67 L 130.00000000000003 95 A 50 50 0 0 0 129.70698598031805 95.00085857952888 Z" fill="#89e051"/>
  
    <rect x="290" y="69" width="12" height="12" rx="3" fill="#dea584"/>
    <text x="312" y="80" class="lang-name">Rust</text>
    <text x="599" y="80" class="lang-pct" text-anchor="end">42.39%</text>
    <rect x="290" y="99" width="12" height="12" rx="3" fill="#3178c6"/>
    <text x="312" y="110" class="lang-name">TypeScript</text>
    <text x="599" y="110" class="lang-pct" text-anchor="end">27.36%</text>
    <rect x="290" y="129" width="12" height="12" rx="3" fill="#663399"/>
    <text x="312" y="140" class="lang-name">CSS</text>
    <text x="599" y="140" class="lang-pct" text-anchor="end">9.37%</text>
    <rect x="290" y="159" width="12" height="12" rx="3" fill="#f1e05a"/>
    <text x="312" y="170" class="lang-name">JavaScript</text>
    <text x="599" y="170" class="lang-pct" text-anchor="end">6.68%</text>
    <rect x="290" y="189" width="12" height="12" rx="3" fill="#178600"/>
    <text x="312" y="200" class="lang-name">C#</text>
    <text x="599" y="200" class="lang-pct" text-anchor="end">4.29%</text>
    <rect x="629" y="69" width="12" height="12" rx="3" fill="#3572A5"/>
    <text x="651" y="80" class="lang-name">Python</text>
    <text x="938" y="80" class="lang-pct" text-anchor="end">4.27%</text>
    <rect x="629" y="99" width="12" height="12" rx="3" fill="#ff3e00"/>
    <text x="651" y="110" class="lang-name">Svelte</text>
    <text x="938" y="110" class="lang-pct" text-anchor="end">3.39%</text>
    <rect x="629" y="129" width="12" height="12" rx="3" fill="#e34c26"/>
    <text x="651" y="140" class="lang-name">HTML</text>
    <text x="938" y="140" class="lang-pct" text-anchor="end">1.41%</text>
    <rect x="629" y="159" width="12" height="12" rx="3" fill="#A97BFF"/>
    <text x="651" y="170" class="lang-name">Kotlin</text>
    <text x="938" y="170" class="lang-pct" text-anchor="end">0.75%</text>
    <rect x="629" y="189" width="12" height="12" rx="3" fill="#89e051"/>
    <text x="651" y="200" class="lang-name">Shell</text>
    <text x="938" y="200" class="lang-pct" text-anchor="end">0.09%</text>
</svg>