<svg xmlns="http://www.w3.org/2000/svg" width="968" height="250" viewBox="0 0 968 250" fill="none" role="img">
  <rect width="968" height="250" fill="#0a192f" rx="6"/>
  <style>
    .title { font: 700 15px "Segoe UI", Helvetica, sans-serif; fill: #64ffda; letter-spacing: 0.5px; }
    .lang-name { font: 600 13px "Segoe UI", Helvetica, sans-serif; fill: #ccd6f6; }
    .lang-pct { font: 400 13px "Segoe UI", Helvetica, sans-serif; fill: #8892b0; }
  </style>
  <text x="30" y="30" class="title">Most Used Languages</text>
  <path d="M 130 67 A 78 78 0 1 1 80.1711075993011 84.99098832575586 L 98.0584023072443 106.53268482420248 A 50 50 0 1 0 130 95 Z" fill="#3178c6"/><path d="M 80.1711075993011 84.99098832575586 A 78 78 0 0 1 99.72488838337598 73.11524767656942 L 110.59287716883075 98.92003056190347 A 50 50 0 0 0 98.0584023072443 106.53268482420248 Z" fill="#dea584"/><path d="M 99.72488838337598 73.11524767656942 A 78 78 0 0 1 112.38478689257555 69.01510500645526 L 118.70819672600996 96.29173397849695 A 50 50 0 0 0 110.59287716883075 98.92003056190347 Z" fill="#178600"/><path d="M 112.38478689257555 69.01510500645526 A 78 78 0 0 1 117.51209980811367 68.00615382514337 L 121.99493577443184 95.64497040073293 A 50 50 0 0 0 118.70819672600996 96.29173397849695 Z" fill="#663399"/><path d="M 117.51209980811367 68.00615382514337 A 78 78 0 0 1 122.5065209992599 67.36078457077592 L 125.1964878200384 95.23127216075379 A 50 50 0 0 0 121.99493577443184 95.64497040073293 Z" fill="#f1e05a"/><path d="M 122.5065209992599 67.36078457077592 A 78 78 0 0 1 124.93584437621017 67.16456894307042 L 126.75374639500652 95.10549291222463 A 50 50 0 0 0 125.1964878200384 95.23127216075379 Z" fill="#3572A5"/><path d="M 124.93584437621017 67.16456894307042 A 78 78 0 0 1 126.71628695163719 67.06915098232272 L 127.89505573822898 95.04432755277097 A 50 50 0 0 0 126.75374639500652 95.10549291222463 Z" fill="#e34c26"/><path d="M 126.71628695163719 67.06915098232272 A 78 78 0 0 1 128.22258931311734 67.02025383953757 L 128.8606341750752 95.0129832304728 A 50 50 0 0 0 127.89505573822898 95.04432755277097 Z" fill="#ff3e00"/><path d="M 128.22258931311734 67.02025383953757 A 78 78 0 0 1 129.05071105406574 67.00577681329773 L 129.39148144491395 95.00370308544726 A 50 50 0 0 0 128.8606341750752 95.0129832304728 Z" fill="#89e051"/><path d="M 129.05071105406574 67.00577681329773 A 78 78 0 0 1 129.63392382955763 67.00085905449065 L 129.76533578817796 95.00055067595554 A 50 50 0 0 0 129.39148144491395 95.00370308544726 Z" fill="#336790"/>
  
    <rect x="290" y="69" width="12" height="12" rx="3" fill="#3178c6"/>
    <text x="312" y="80" class="lang-name">TypeScript</text>
    <text x="599" y="80" class="lang-pct" text-anchor="end">88.97%</text>
    <rect x="290" y="99" width="12" height="12" rx="3" fill="#dea584"/>
    <text x="312" y="110" class="lang-name">Rust</text>
    <text x="599" y="110" class="lang-pct" text-anchor="end">4.68%</text>
    <rect x="290" y="129" width="12" height="12" rx="3" fill="#178600"/>
    <text x="312" y="140" class="lang-name">C#</text>
    <text x="599" y="140" class="lang-pct" text-anchor="end">2.72%</text>
    <rect x="290" y="159" width="12" height="12" rx="3" fill="#663399"/>
    <text x="312" y="170" class="lang-name">CSS</text>
    <text x="599" y="170" class="lang-pct" text-anchor="end">1.07%</text>
    <rect x="290" y="189" width="12" height="12" rx="3" fill="#f1e05a"/>
    <text x="312" y="200" class="lang-name">JavaScript</text>
    <text x="599" y="200" class="lang-pct" text-anchor="end">1.03%</text>
    <rect x="629" y="69" width="12" height="12" rx="3" fill="#3572A5"/>
    <text x="651" y="80" class="lang-name">Python</text>
    <text x="938" y="80" class="lang-pct" text-anchor="end">0.50%</text>
    <rect x="629" y="99" width="12" height="12" rx="3" fill="#e34c26"/>
    <text x="651" y="110" class="lang-name">HTML</text>
    <text x="938" y="110" class="lang-pct" text-anchor="end">0.36%</text>
    <rect x="629" y="129" width="12" height="12" rx="3" fill="#ff3e00"/>
    <text x="651" y="140" class="lang-name">Svelte</text>
    <text x="938" y="140" class="lang-pct" text-anchor="end">0.31%</text>
    <rect x="629" y="159" width="12" height="12" rx="3" fill="#89e051"/>
    <text x="651" y="170" class="lang-name">Shell</text>
    <text x="938" y="170" class="lang-pct" text-anchor="end">0.17%</text>
    <rect x="629" y="189" width="12" height="12" rx="3" fill="#336790"/>
    <text x="651" y="200" class="lang-name">PLpgSQL</text>
    <text x="938" y="200" class="lang-pct" text-anchor="end">0.12%</text>
</svg>