<svg xmlns="http://www.w3.org/2000/svg" width="968" height="250" viewBox="0 0 968 250" fill="none" role="img">
  <rect width="968" height="250" fill="#0a192f" rx="6"/>
  <style>
    .title { font: 700 15px "Segoe UI", Helvetica, sans-serif; fill: #64ffda; letter-spacing: 0.5px; }
    .lang-name { font: 600 13px "Segoe UI", Helvetica, sans-serif; fill: #ccd6f6; }
    .lang-pct { font: 400 13px "Segoe UI", Helvetica, sans-serif; fill: #8892b0; }
  </style>
  <text x="30" y="30" class="title">Most Used Languages</text>
  <path d="M 130 67 A 78 78 0 0 1 198.63924992686682 182.04933696406877 L 173.999519183889 168.74957497696715 A 50 50 0 0 0 130 95 Z" fill="#3178c6"/><path d="M 198.63924992686682 182.04933696406877 A 78 78 0 0 1 103.01684865635005 218.18407985050902 L 112.70310811304489 191.91287169904425 A 50 50 0 0 0 173.999519183889 168.74957497696715 Z" fill="#dea584"/><path d="M 103.01684865635005 218.18407985050902 A 78 78 0 0 1 60.70539279712841 180.80862204273905 L 85.58037999815923 167.95424489919168 A 50 50 0 0 0 112.70310811304489 191.91287169904425 Z" fill="#663399"/><path d="M 60.70539279712841 180.80862204273905 A 78 78 0 0 1 53.97803821694569 127.54544968623279 L 81.26797321599082 133.81118569630306 A 50 50 0 0 0 85.58037999815923 167.95424489919168 Z" fill="#f1e05a"/><path d="M 53.97803821694569 127.54544968623279 A 78 78 0 0 1 73.33421665748111 91.39972949528419 L 93.67577990864174 110.64085224056677 A 50 50 0 0 0 81.26797321599082 133.81118569630306 Z" fill="#3572A5"/><path d="M 73.33421665748111 91.39972949528419 A 78 78 0 0 1 100.24977885561894 72.89643322372726 L 110.92934542026856 98.77976488700466 A 50 50 0 0 0 93.67577990864174 110.64085224056677 Z" fill="#ff3e00"/><path d="M 100.24977885561894 72.89643322372726 A 78 78 0 0 1 111.23474616169617 69.29091700209266 L 117.97099112929241 96.46853653980298 A 50 50 0 0 0 110.92934542026856 98.77976488700466 Z" fill="#178600"/><path d="M 111.23474616169617 69.29091700209266 A 78 78 0 0 1 121.83949309142447 67.4280583780766 L 124.76890582783619 95.27439639620295 A 50 50 0 0 0 117.97099112929241 96.46853653980298 Z" fill="#e34c26"/><path d="M 121.83949309142447 67.4280583780766 A 78 78 0 0 1 129.0934570703472 67.00526825537064 L 129.41888273740204 95.00337708677606 A 50 50 0 0 0 124.76890582783619 95.27439639620295 Z" fill="#A97BFF"/><path d="M 129.0934570703472 67.00526825537064 A 78 78 0 0 1 129.99999999999997 67 L 130 95 A 50 50 0 0 0 129.41888273740204 95.00337708677606 Z" fill="#89e051"/>
  
    <rect x="290" y="69" width="12" height="12" rx="3" fill="#3178c6"/>
    <text x="312" y="80" class="lang-name">TypeScript</text>
    <text x="599" y="80" class="lang-pct" text-anchor="end">32.88%</text>
    <rect x="290" y="99" width="12" height="12" rx="3" fill="#dea584"/>
    <text x="312" y="110" class="lang-name">Rust</text>
    <text x="599" y="110" class="lang-pct" text-anchor="end">22.74%</text>
    <rect x="290" y="129" width="12" height="12" rx="3" fill="#663399"/>
    <text x="312" y="140" class="lang-name">CSS</text>
    <text x="599" y="140" class="lang-pct" text-anchor="end">11.79%</text>
    <rect x="290" y="159" width="12" height="12" rx="3" fill="#f1e05a"/>
    <text x="312" y="170" class="lang-name">JavaScript</text>
    <text x="599" y="170" class="lang-pct" text-anchor="end">11.18%</text>
    <rect x="290" y="189" width="12" height="12" rx="3" fill="#3572A5"/>
    <text x="312" y="200" class="lang-name">Python</text>
    <text x="599" y="200" class="lang-pct" text-anchor="end">8.47%</text>
    <rect x="629" y="69" width="12" height="12" rx="3" fill="#ff3e00"/>
    <text x="651" y="80" class="lang-name">Svelte</text>
    <text x="938" y="80" class="lang-pct" text-anchor="end">6.71%</text>
    <rect x="629" y="99" width="12" height="12" rx="3" fill="#178600"/>
    <text x="651" y="110" class="lang-name">C#</text>
    <text x="938" y="110" class="lang-pct" text-anchor="end">2.36%</text>
    <rect x="629" y="129" width="12" height="12" rx="3" fill="#e34c26"/>
    <text x="651" y="140" class="lang-name">HTML</text>
    <text x="938" y="140" class="lang-pct" text-anchor="end">2.20%</text>
    <rect x="629" y="159" width="12" height="12" rx="3" fill="#A97BFF"/>
    <text x="651" y="170" class="lang-name">Kotlin</text>
    <text x="938" y="170" class="lang-pct" text-anchor="end">1.48%</text>
    <rect x="629" y="189" width="12" height="12" rx="3" fill="#89e051"/>
    <text x="651" y="200" class="lang-name">Shell</text>
    <text x="938" y="200" class="lang-pct" text-anchor="end">0.18%</text>
</svg>