<svg xmlns="http://www.w3.org/2000/svg" width="830" height="110" viewBox="0 0 830 110" fill="none" role="img">
  <style>
    .label { font: 600 11px "Segoe UI", Helvetica, sans-serif; fill: #8892b0; letter-spacing: 0.5px; text-transform: uppercase; }
    .value { font: 700 22px "Segoe UI", Helvetica, sans-serif; fill: #ccd6f6; }
  </style>
  <g transform="translate(0,0)">
      <rect width="110" height="110" rx="8" fill="#112240" stroke="#64ffda" stroke-width="1" stroke-opacity="0.3"/>
      <text x="55" y="32" class="label" text-anchor="middle">Commits</text>
      <text x="55" y="62" class="value" text-anchor="middle">389</text>
      <circle cx="31" cy="88" r="3" fill="#64ffda" /><circle cx="43" cy="88" r="3" fill="#8892b0" opacity="0.4"/><circle cx="55" cy="88" r="3" fill="#8892b0" opacity="0.4"/><circle cx="67" cy="88" r="3" fill="#8892b0" opacity="0.4"/><circle cx="79" cy="88" r="3" fill="#8892b0" opacity="0.4"/>
    </g>
  <g transform="translate(120,0)">
      <rect width="110" height="110" rx="8" fill="#112240" stroke="#64ffda" stroke-width="1" stroke-opacity="0.3"/>
      <text x="55" y="32" class="label" text-anchor="middle">Contribs</text>
      <text x="55" y="62" class="value" text-anchor="middle">3,048</text>
      <circle cx="31" cy="88" r="3" fill="#64ffda" /><circle cx="43" cy="88" r="3" fill="#64ffda" /><circle cx="55" cy="88" r="3" fill="#8892b0" opacity="0.4"/><circle cx="67" cy="88" r="3" fill="#8892b0" opacity="0.4"/><circle cx="79" cy="88" r="3" fill="#8892b0" opacity="0.4"/>
    </g>
  <g transform="translate(240,0)">
      <rect width="110" height="110" rx="8" fill="#112240" stroke="#64ffda" stroke-width="1" stroke-opacity="0.3"/>
      <text x="55" y="32" class="label" text-anchor="middle">Streak</text>
      <text x="55" y="62" class="value" text-anchor="middle">94</text>
      <circle cx="31" cy="88" r="3" fill="#64ffda" /><circle cx="43" cy="88" r="3" fill="#64ffda" /><circle cx="55" cy="88" r="3" fill="#8892b0" opacity="0.4"/><circle cx="67" cy="88" r="3" fill="#8892b0" opacity="0.4"/><circle cx="79" cy="88" r="3" fill="#8892b0" opacity="0.4"/>
    </g>
  <g transform="translate(360,0)">
      <rect width="110" height="110" rx="8" fill="#112240" stroke="#64ffda" stroke-width="1" stroke-opacity="0.3"/>
      <text x="55" y="32" class="label" text-anchor="middle">PRs</text>
      <text x="55" y="62" class="value" text-anchor="middle">23</text>
      <circle cx="31" cy="88" r="3" fill="#64ffda" /><circle cx="43" cy="88" r="3" fill="#64ffda" /><circle cx="55" cy="88" r="3" fill="#8892b0" opacity="0.4"/><circle cx="67" cy="88" r="3" fill="#8892b0" opacity="0.4"/><circle cx="79" cy="88" r="3" fill="#8892b0" opacity="0.4"/>
    </g>
  <g transform="translate(480,0)">
      <rect width="110" height="110" rx="8" fill="#112240" stroke="#64ffda" stroke-width="1" stroke-opacity="0.3"/>
      <text x="55" y="32" class="label" text-anchor="middle">Stars</text>
      <text x="55" y="62" class="value" text-anchor="middle">1</text>
      <circle cx="31" cy="88" r="3" fill="#64ffda" /><circle cx="43" cy="88" r="3" fill="#8892b0" opacity="0.4"/><circle cx="55" cy="88" r="3" fill="#8892b0" opacity="0.4"/><circle cx="67" cy="88" r="3" fill="#8892b0" opacity="0.4"/><circle cx="79" cy="88" r="3" fill="#8892b0" opacity="0.4"/>
    </g>
  <g transform="translate(600,0)">
      <rect width="110" height="110" rx="8" fill="#112240" stroke="#64ffda" stroke-width="1" stroke-opacity="0.3"/>
      <text x="55" y="32" class="label" text-anchor="middle">Followers</text>
      <text x="55" y="62" class="value" text-anchor="middle">2</text>
      <circle cx="31" cy="88" r="3" fill="#64ffda" /><circle cx="43" cy="88" r="3" fill="#8892b0" opacity="0.4"/><circle cx="55" cy="88" r="3" fill="#8892b0" opacity="0.4"/><circle cx="67" cy="88" r="3" fill="#8892b0" opacity="0.4"/><circle cx="79" cy="88" r="3" fill="#8892b0" opacity="0.4"/>
    </g>
  <g transform="translate(720,0)">
      <rect width="110" height="110" rx="8" fill="#112240" stroke="#64ffda" stroke-width="1" stroke-opacity="0.3"/>
      <text x="55" y="32" class="label" text-anchor="middle">Repos</text>
      <text x="55" y="62" class="value" text-anchor="middle">7</text>
      <circle cx="31" cy="88" r="3" fill="#64ffda" /><circle cx="43" cy="88" r="3" fill="#8892b0" opacity="0.4"/><circle cx="55" cy="88" r="3" fill="#8892b0" opacity="0.4"/><circle cx="67" cy="88" r="3" fill="#8892b0" opacity="0.4"/><circle cx="79" cy="88" r="3" fill="#8892b0" opacity="0.4"/>
    </g>
</svg>